<svg width="693" height="267" viewBox="0 0 693 267" fill="none" xmlns="http://www.w3.org/2000/svg">
<path d="M0 203.724H104.869V257.099H174.406V203.724H190.569V152.23H174.406V14.6592H70.6646V48.1121H53.7502V83.0685H35.7082V117.649H19.1696V152.23H0V203.724Z" fill="#01FD93"/>
<path d="M88.1493 117.649V82.6926H104.87V151.854H70.2891V117.649H88.1493Z" fill="black" stroke="black" stroke-width="0.751751"/>
<path d="M502.168 203.724H607.037V257.099H676.574V203.724H692.737V152.23H676.574V14.6592H572.833V48.1121H555.918V83.0685H537.876V117.649H521.338V152.23H502.168V203.724Z" fill="#01FD93"/>
<path d="M590.317 117.649V82.6926H607.038V151.854H572.457V117.649H590.317Z" fill="black"/>
<rect x="295.812" y="190.193" width="20.2973" height="20.2973" fill="#01FD93"/>
<rect x="376.25" y="190.193" width="20.2973" height="20.2973" fill="#01FD93"/>
<rect x="316.109" y="169.896" width="60.1401" height="20.2973" fill="#01FD93"/>
<rect x="295.812" y="60.8918" width="20.2973" height="60.8918" fill="#01FD93"/>
<rect x="336.41" y="81.1892" width="20.2973" height="60.8918" transform="rotate(90 336.41 81.1892)" fill="#01FD93"/>
<rect x="376.25" width="20.2973" height="20.2973" fill="#01FD93"/>
<rect x="396.547" y="20.2974" width="20.2973" height="20.2973" fill="#01FD93"/>
<rect x="416.848" y="40.5945" width="20.2973" height="20.2973" fill="#01FD93"/>
<rect x="437.145" y="60.8918" width="20.2973" height="20.2973" fill="#01FD93"/>
<path d="M244.695 10.1487V252.964H447.292V91.2146H366.103V10.1487H244.695Z" stroke="#01FD93" stroke-width="20.2973"/>
</svg>
