<svg width="1448" height="488" viewBox="0 0 1448 488" fill="none" xmlns="http://www.w3.org/2000/svg">
<g clip-path="url(#clip0_605_42)" filter="url(#filter0_d_605_42)">
<mask id="mask0_605_42" style="mask-type:luminance" maskUnits="userSpaceOnUse" x="4" y="0" width="1440" height="480">
<path d="M1444 0H4V480H1444V0Z" fill="white"/>
</mask>
<g mask="url(#mask0_605_42)">
<path opacity="0.8" d="M100 30V126M100 126H4M100 126H196M100 126V222M196 126V30M196 126H292M196 126V222M100 222H4M100 222H196M100 222V318M292 126V30M292 126H388M292 126V222M196 222H292M196 222V318M388 126V30M388 126H484M388 126V222M292 222H388M292 222V318M484 126V30M484 126H580M484 126V222M388 222H484M388 222V318M580 126V30M580 126H676M580 126V222M484 222H580M484 222V318M676 126V30M676 126H772M676 126V222M580 222H676M580 222V318M772 126V30M772 126V222M772 126H868M676 222H772M676 222V318M772 222V318M772 222H868M868 126V30M868 126V222M868 126H964M100 318H4M100 318H196M100 318V414M196 318H292M196 318V414M292 318H388M292 318V414M388 318H484M388 318V414M484 318H580M484 318V414M580 318H676M580 318V414M676 318H772M676 318V414M772 318V414M772 318H868M868 222V318M868 222H964M100 414H4M100 414H196M100 414V510M196 414H292M196 414V510M292 414H388M292 414V510M388 414H484M388 414V510M484 414H580M484 414V510M580 414H676M580 414V510M676 414H772M676 414V510M772 414V510M772 414H868M868 318V414M868 318H964M868 414V510M868 414H964M964 126V30M964 126V222M964 126H1060M964 414V510M964 414V318M964 414H1060H1156M964 318V222M964 318H1060H1156M964 222H1060H1156M1060 126V510M1060 126V30M1060 126H1156M1156 222V126M1156 222V318M1156 222H1252M1156 318V414M1156 318H1252M1156 414V510M1156 414H1252M1156 126V30M1156 126H1252M1252 126V30M1252 126H1348M1252 126V222M1252 414H1348M1252 414V510M1252 414V318M1348 414V510M1348 414V318M1348 414H1444M1252 318V222M1252 318H1348M1348 126V30M1348 126H1444M1348 126V222M1252 222H1348M1348 222H1444M1348 222V318M1348 318H1444" stroke="url(#paint0_radial_605_42)" stroke-dasharray="2 4"/>
</g>
</g>
<defs>
<filter id="filter0_d_605_42" x="0" y="0" width="1448" height="488" filterUnits="userSpaceOnUse" color-interpolation-filters="sRGB">
<feFlood flood-opacity="0" result="BackgroundImageFix"/>
<feColorMatrix in="SourceAlpha" type="matrix" values="0 0 0 0 0 0 0 0 0 0 0 0 0 0 0 0 0 0 127 0" result="hardAlpha"/>
<feOffset dy="4"/>
<feGaussianBlur stdDeviation="2"/>
<feComposite in2="hardAlpha" operator="out"/>
<feColorMatrix type="matrix" values="0 0 0 0 0 0 0 0 0 0 0 0 0 0 0 0 0 0 0.25 0"/>
<feBlend mode="normal" in2="BackgroundImageFix" result="effect1_dropShadow_605_42"/>
<feBlend mode="normal" in="SourceGraphic" in2="effect1_dropShadow_605_42" result="shape"/>
</filter>
<radialGradient id="paint0_radial_605_42" cx="0" cy="0" r="1" gradientUnits="userSpaceOnUse" gradientTransform="translate(724 30) rotate(90) scale(480 2001.13)">
<stop stop-color="#857C92" stop-opacity="0"/>
<stop offset="1" stop-color="#857C92"/>
</radialGradient>
<clipPath id="clip0_605_42">
<rect width="1440" height="480" fill="white" transform="translate(4)"/>
</clipPath>
</defs>
</svg>
