<svg width="1601" height="366" viewBox="0 0 1601 366" fill="none" xmlns="http://www.w3.org/2000/svg">
<path d="M434.602 314V55H475.552V169.8L580.902 55.35H633.052L516.502 179.6L637.952 314H584.052L475.552 192.9V314H434.602Z" fill="white"/>
<path d="M676.594 314L676.944 55H716.494V314H676.594Z" fill="white"/>
<path d="M790.913 96.65C783.679 96.65 777.729 94.2 773.062 89.3C768.396 84.4 766.062 78.6834 766.062 72.15C766.062 65.3834 768.396 59.6667 773.062 55C777.729 50.1 783.679 47.65 790.913 47.65C798.146 47.65 804.096 50.1 808.763 55C813.663 59.6667 816.112 65.3834 816.112 72.15C816.112 78.9167 813.663 84.75 808.763 89.65C804.096 94.3167 798.146 96.65 790.913 96.65ZM771.312 314V128.5H811.212V314H771.312Z" fill="white"/>
<path d="M949.599 317.5C933.966 317.5 920.433 314.817 908.999 309.45C897.799 303.85 888.466 296.5 880.999 287.4C873.766 278.067 868.283 267.683 864.549 256.25C861.049 244.817 859.299 233.15 859.299 221.25C859.299 209.583 861.049 198.033 864.549 186.6C868.049 175.167 873.416 164.783 880.649 155.45C887.883 146.117 897.099 138.767 908.299 133.4C919.499 127.8 932.683 125 947.849 125C964.183 125 978.533 128.733 990.899 136.2C1003.5 143.433 1013.3 154.283 1020.3 168.75C1027.53 182.983 1031.15 200.717 1031.15 221.95V232.8H899.549C900.483 247.033 905.266 259.283 913.899 269.55C922.533 279.817 934.433 284.95 949.599 284.95C958.233 284.95 965.349 283.55 970.949 280.75C976.549 277.717 980.866 274.333 983.899 270.6C986.933 266.867 989.033 263.6 990.199 260.8C991.599 258 992.299 256.6 992.299 256.6H1029.4C1029.4 256.6 1028.82 258.7 1027.65 262.9C1026.48 266.867 1024.27 271.883 1021 277.95C1017.97 284.017 1013.53 290.083 1007.7 296.15C1001.87 302.217 994.166 307.35 984.599 311.55C975.033 315.517 963.366 317.5 949.599 317.5ZM899.899 204.8H992.649C991.716 188.467 986.816 176.45 977.949 168.75C969.316 161.05 959.166 157.2 947.499 157.2C934.433 157.2 923.583 161.517 914.949 170.15C906.316 178.55 901.299 190.1 899.899 204.8Z" fill="white"/>
<path d="M1073.68 314V128.5H1113.58V155.45H1115.68C1117.31 152.183 1120.11 148.217 1124.08 143.55C1128.05 138.65 1133.53 134.333 1140.53 130.6C1147.76 126.867 1156.86 125 1167.83 125C1181.6 125 1193.15 128.15 1202.48 134.45C1211.81 140.75 1218.81 149.15 1223.48 159.65C1228.38 170.15 1230.83 181.7 1230.83 194.3V314H1190.93V198.5C1190.93 187.3 1187.78 177.85 1181.48 170.15C1175.41 162.45 1166.31 158.6 1154.18 158.6C1144.61 158.6 1136.8 161.05 1130.73 165.95C1124.9 170.617 1120.58 176.8 1117.78 184.5C1114.98 191.967 1113.58 200.017 1113.58 208.65V314H1073.68Z" fill="white"/>
<path d="M1352.78 317.5C1338.08 317.5 1326.3 314.817 1317.43 309.45C1308.56 304.083 1302.15 296.967 1298.18 288.1C1294.45 279 1292.58 269.2 1292.58 258.7V160.7H1260.03V128.5H1292.58V82.3H1332.48V128.5H1375.88V160.7H1332.48V258C1332.48 275.5 1342.16 284.25 1361.53 284.25C1366.43 284.25 1370.98 283.9 1375.18 283.2C1379.38 282.5 1381.48 282.15 1381.48 282.15V314.7C1381.48 314.7 1378.56 315.167 1372.73 316.1C1367.13 317.033 1360.48 317.5 1352.78 317.5Z" fill="white"/>
<path d="M1507.14 317.5C1486.84 317.5 1469.69 312.95 1455.69 303.85C1441.93 294.75 1431.43 282.85 1424.19 268.15C1417.19 253.45 1413.69 237.817 1413.69 221.25C1413.69 204.683 1417.19 189.05 1424.19 174.35C1431.43 159.65 1441.93 147.75 1455.69 138.65C1469.69 129.55 1486.84 125 1507.14 125C1527.21 125 1544.13 129.55 1557.89 138.65C1571.89 147.75 1582.39 159.65 1589.39 174.35C1596.63 189.05 1600.24 204.683 1600.24 221.25C1600.24 237.817 1596.63 253.45 1589.39 268.15C1582.39 282.85 1571.89 294.75 1557.89 303.85C1544.13 312.95 1527.21 317.5 1507.14 317.5ZM1507.14 283.55C1518.58 283.55 1528.14 280.633 1535.84 274.8C1543.78 268.967 1549.73 261.267 1553.69 251.7C1557.89 242.133 1559.99 231.983 1559.99 221.25C1559.99 210.283 1557.89 200.133 1553.69 190.8C1549.73 181.233 1543.78 173.533 1535.84 167.7C1528.14 161.867 1518.58 158.95 1507.14 158.95C1495.71 158.95 1486.03 161.867 1478.09 167.7C1470.16 173.533 1464.21 181.233 1460.24 190.8C1456.28 200.133 1454.29 210.283 1454.29 221.25C1454.29 231.983 1456.28 242.133 1460.24 251.7C1464.21 261.267 1470.16 268.967 1478.09 274.8C1486.03 280.633 1495.71 283.55 1507.14 283.55Z" fill="white"/>
<path d="M101.965 259.606V138.794L201.01 1.13794H302.92L101.965 259.606Z" fill="#6C77FF"/>
<rect x="1" y="1.14722" width="81.2014" height="364.416" fill="#6C77FF"/>
<path d="M160.289 217.581L214.753 148.243L317.796 365.563H228.748L160.289 217.581Z" fill="#6C77FF"/>
</svg>
