<svg width="1440" height="480" viewBox="0 0 1440 480" fill="none" xmlns="http://www.w3.org/2000/svg">
<g clip-path="url(#clip0_294_392)">
<mask id="mask0_294_392" style="mask-type:luminance" maskUnits="userSpaceOnUse" x="0" y="0" width="1440" height="480">
<path d="M1440 0H0V480H1440V0Z" fill="white"/>
</mask>
<g mask="url(#mask0_294_392)">
<path opacity="0.4" d="M96 0V96M96 96H0M96 96H192M96 96V192M192 96V0M192 96H288M192 96V192M96 192H0M96 192H192M96 192V288M288 96V0M288 96H384M288 96V192M192 192H288M192 192V288M384 96V0M384 96H480M384 96V192M288 192H384M288 192V288M480 96V0M480 96H576M480 96V192M384 192H480M384 192V288M576 96V0M576 96H672M576 96V192M480 192H576M480 192V288M672 96V0M672 96H768M672 96V192M576 192H672M576 192V288M768 96V0M768 96V192M768 96H864M672 192H768M672 192V288M768 192V288M768 192H864M864 96V0M864 96V192M864 96H960M96 288H0M96 288H192M96 288V384M192 288H288M192 288V384M288 288H384M288 288V384M384 288H480M384 288V384M480 288H576M480 288V384M576 288H672M576 288V384M672 288H768M672 288V384M768 288V384M768 288H864M864 192V288M864 192H960M96 384H0M96 384H192M96 384V480M192 384H288M192 384V480M288 384H384M288 384V480M384 384H480M384 384V480M480 384H576M480 384V480M576 384H672M576 384V480M672 384H768M672 384V480M768 384V480M768 384H864M864 288V384M864 288H960M864 384V480M864 384H960M960 96V0M960 96V192M960 96H1056M960 384V480M960 384V288M960 384H1056H1152M960 288V192M960 288H1056H1152M960 192H1056H1152M1056 96V480M1056 96V0M1056 96H1152M1152 192V96M1152 192V288M1152 192H1248M1152 288V384M1152 288H1248M1152 384V480M1152 384H1248M1152 96V0M1152 96H1248M1248 96V0M1248 96H1344M1248 96V192M1248 384H1344M1248 384V480M1248 384V288M1344 384V480M1344 384V288M1344 384H1440M1248 288V192M1248 288H1344M1344 96V0M1344 96H1440M1344 96V192M1248 192H1344M1344 192H1440M1344 192V288M1344 288H1440" stroke="url(#paint0_radial_294_392)"/>
</g>
</g>
<defs>
<radialGradient id="paint0_radial_294_392" cx="0" cy="0" r="1" gradientUnits="userSpaceOnUse" gradientTransform="translate(720) rotate(90) scale(480 2001.13)">
<stop stop-color="#857C92" stop-opacity="0"/>
<stop offset="1" stop-color="#857C92"/>
</radialGradient>
<clipPath id="clip0_294_392">
<rect width="1440" height="480" fill="white"/>
</clipPath>
</defs>
</svg>
