<svg width="24" height="24" viewBox="0 0 24 24" fill="none" xmlns="http://www.w3.org/2000/svg">
<path d="M6.76328 10.2123C6.76328 10.5077 6.79521 10.7471 6.85108 10.9228C6.91494 11.0984 6.99476 11.2899 7.10651 11.4975C7.14642 11.5613 7.16239 11.6252 7.16239 11.6811C7.16239 11.7609 7.1145 11.8407 7.01073 11.9205L6.50785 12.2558C6.43601 12.3037 6.36417 12.3276 6.30032 12.3276C6.22049 12.3276 6.14067 12.2877 6.06085 12.2159C5.9491 12.0961 5.85332 11.9684 5.77349 11.8407C5.69367 11.705 5.61385 11.5533 5.52605 11.3698C4.90344 12.1041 4.12119 12.4713 3.1793 12.4713C2.5088 12.4713 1.97399 12.2797 1.58287 11.8966C1.19174 11.5134 0.992188 11.0026 0.992188 10.364C0.992188 9.68552 1.23165 9.13475 1.71856 8.71968C2.20547 8.30461 2.85203 8.09707 3.67419 8.09707C3.94558 8.09707 4.22496 8.12102 4.5203 8.16093C4.81564 8.20084 5.11896 8.2647 5.43824 8.33654V7.75384C5.43824 7.1472 5.31053 6.72414 5.06308 6.4767C4.80765 6.22925 4.37662 6.10952 3.76199 6.10952C3.48262 6.10952 3.19526 6.14145 2.89992 6.21329C2.60458 6.28513 2.31722 6.37293 2.03785 6.48468C1.91013 6.54055 1.81435 6.57248 1.75847 6.58845C1.7026 6.60441 1.66269 6.61239 1.63076 6.61239C1.51901 6.61239 1.46313 6.53257 1.46313 6.36495V5.97382C1.46313 5.84611 1.4791 5.75032 1.51901 5.69445C1.55892 5.63857 1.63076 5.5827 1.74251 5.52682C2.02188 5.38314 2.35713 5.26341 2.74826 5.16763C3.13939 5.06386 3.55446 5.01596 3.99348 5.01596C4.94335 5.01596 5.6378 5.23148 6.0848 5.66252C6.52382 6.09355 6.74732 6.74809 6.74732 7.62613V10.2123H6.76328ZM3.52253 11.4256C3.78594 11.4256 4.05733 11.3777 4.34469 11.282C4.63205 11.1862 4.88748 11.0106 5.10299 10.7711C5.23071 10.6194 5.32649 10.4518 5.37439 10.2602C5.42228 10.0687 5.45421 9.83718 5.45421 9.56579V9.23054C5.22273 9.17466 4.97528 9.12677 4.71985 9.09484C4.46442 9.06291 4.21698 9.04695 3.96953 9.04695C3.43472 9.04695 3.0436 9.15072 2.78019 9.36624C2.51678 9.58175 2.38906 9.88508 2.38906 10.2842C2.38906 10.6593 2.48485 10.9387 2.6844 11.1303C2.87597 11.3298 3.15535 11.4256 3.52253 11.4256ZM9.93219 12.2877C9.78852 12.2877 9.69273 12.2638 9.62887 12.2079C9.56501 12.16 9.50914 12.0482 9.46125 11.8966L7.58544 5.72638C7.53755 5.56673 7.5136 5.46296 7.5136 5.40709C7.5136 5.27938 7.57746 5.20754 7.70517 5.20754H8.48743C8.63909 5.20754 8.74285 5.23148 8.79873 5.28736C8.86259 5.33525 8.91048 5.447 8.95837 5.59866L10.2994 10.8828L11.5446 5.59866C11.5845 5.43902 11.6324 5.33525 11.6962 5.28736C11.7601 5.23946 11.8719 5.20754 12.0155 5.20754H12.6541C12.8058 5.20754 12.9095 5.23148 12.9734 5.28736C13.0372 5.33525 13.0931 5.447 13.1251 5.59866L14.3862 10.9467L15.7671 5.59866C15.815 5.43902 15.8709 5.33525 15.9268 5.28736C15.9906 5.23946 16.0944 5.20754 16.2381 5.20754H16.9804C17.1081 5.20754 17.18 5.27139 17.18 5.40709C17.18 5.447 17.172 5.48691 17.164 5.5348C17.156 5.5827 17.1401 5.64655 17.1081 5.73436L15.1844 11.9046C15.1366 12.0642 15.0807 12.168 15.0168 12.2159C14.953 12.2638 14.8492 12.2957 14.7135 12.2957H14.027C13.8754 12.2957 13.7716 12.2717 13.7078 12.2159C13.6439 12.16 13.588 12.0562 13.5561 11.8966L12.3189 6.74809L11.0896 11.8886C11.0497 12.0482 11.0018 12.152 10.9379 12.2079C10.8741 12.2638 10.7623 12.2877 10.6187 12.2877H9.93219ZM20.1893 12.5032C19.7742 12.5032 19.3591 12.4553 18.96 12.3595C18.5609 12.2638 18.2496 12.16 18.0421 12.0403C17.9143 11.9684 17.8265 11.8886 17.7946 11.8168C17.7627 11.7449 17.7467 11.6651 17.7467 11.5933V11.1862C17.7467 11.0185 17.8106 10.9387 17.9303 10.9387C17.9782 10.9387 18.0261 10.9467 18.074 10.9627C18.1219 10.9786 18.1937 11.0106 18.2735 11.0425C18.5449 11.1622 18.8403 11.258 19.1516 11.3219C19.4709 11.3857 19.7822 11.4176 20.1015 11.4176C20.6043 11.4176 20.9955 11.3298 21.2668 11.1542C21.5382 10.9786 21.6819 10.7232 21.6819 10.3959C21.6819 10.1724 21.6101 9.98884 21.4664 9.83718C21.3227 9.68552 21.0513 9.54982 20.6602 9.42211L19.5028 9.06291C18.9201 8.87932 18.4891 8.60793 18.2256 8.24873C17.9622 7.89752 17.8265 7.50639 17.8265 7.09132C17.8265 6.75607 17.8984 6.46073 18.0421 6.2053C18.1857 5.94988 18.3773 5.72638 18.6168 5.55077C18.8562 5.36718 19.1276 5.23148 19.4469 5.1357C19.7662 5.03991 20.1015 5 20.4527 5C20.6283 5 20.8119 5.00798 20.9875 5.03193C21.1711 5.05588 21.3387 5.0878 21.5063 5.11973C21.666 5.15964 21.8176 5.19955 21.9613 5.24745C22.105 5.29534 22.2167 5.34323 22.2965 5.39113C22.4083 5.45498 22.4881 5.51884 22.536 5.59068C22.5839 5.65454 22.6078 5.74234 22.6078 5.85409V6.22925C22.6078 6.39688 22.544 6.48468 22.4243 6.48468C22.3604 6.48468 22.2566 6.45275 22.1209 6.38889C21.666 6.18136 21.1551 6.07759 20.5884 6.07759C20.1334 6.07759 19.7742 6.14943 19.5267 6.30109C19.2793 6.45275 19.1516 6.68423 19.1516 7.0115C19.1516 7.235 19.2314 7.42657 19.391 7.57823C19.5507 7.72989 19.846 7.88156 20.2691 8.01725L21.4025 8.37645C21.9773 8.56004 22.3923 8.81547 22.6398 9.14274C22.8872 9.47 23.007 9.84516 23.007 10.2602C23.007 10.6035 22.9351 10.9148 22.7994 11.1862C22.6557 11.4576 22.4642 11.697 22.2167 11.8886C21.9693 12.0881 21.6739 12.2318 21.3307 12.3356C20.9715 12.4473 20.5963 12.5032 20.1893 12.5032Z" fill="currentColor"/>
<path d="M21.698 16.3827C19.0719 18.3223 15.2564 19.352 11.9758 19.352C7.37806 19.352 3.23533 17.6518 0.106324 14.8262C-0.141123 14.6027 0.0823771 14.2993 0.377717 14.475C3.76215 16.4386 7.93681 17.6279 12.2552 17.6279C15.1686 17.6279 18.3695 17.0213 21.3149 15.776C21.7539 15.5765 22.1291 16.0634 21.698 16.3827ZM22.7916 15.1375C22.4563 14.7064 20.5726 14.9299 19.7185 15.0337C19.463 15.0656 19.4231 14.8421 19.6546 14.6745C21.1552 13.6209 23.6217 13.9242 23.9091 14.2754C24.1964 14.6346 23.8293 17.1011 22.4244 18.2824C22.2089 18.466 22.0014 18.3702 22.0971 18.1308C22.4164 17.3405 23.1268 15.5605 22.7916 15.1375Z" fill="white"/>
</svg>
