<svg width="24" height="24" viewBox="0 0 24 24" fill="none" xmlns="http://www.w3.org/2000/svg">
<path d="M10.6578 19.8911C13.6177 19.3683 16.0623 18.9356 16.0904 18.9297L16.1414 18.9188L13.3471 15.595C11.8102 13.7669 10.5527 12.2641 10.5527 12.2555C10.5527 12.2391 13.4381 4.29326 13.4544 4.26499C13.4598 4.25554 15.4234 7.64567 18.2143 12.4829C20.8272 17.0116 22.9814 20.7455 23.0014 20.7805L23.0378 20.8441L14.1571 20.8429L5.27636 20.8418L10.6578 19.8911ZM0 18.8775C0 18.8729 1.31669 16.5872 2.92598 13.7983L5.85196 8.72751L9.26184 5.86593C11.1373 4.29205 12.6768 3.00242 12.683 3.00006C12.6891 2.99771 12.6645 3.05981 12.6281 3.13805C12.5918 3.2163 10.9256 6.79011 8.92547 11.0799L5.28886 18.8794L2.64443 18.8827C1.18999 18.8846 0 18.8822 0 18.8775Z" fill="currentColor"/>
</svg>
