<svg width="24" height="24" viewBox="0 0 24 24" fill="currentColor" xmlns="http://www.w3.org/2000/svg">
<path d="M5.43849 3.60115C8.07522 5.54313 10.9118 9.48015 11.9529 11.5929V17.1732C11.9529 17.0545 11.9062 17.1887 11.8055 17.4779C11.2622 19.0435 9.13969 25.1541 4.28633 20.2691C1.73082 17.6971 2.91388 15.1251 7.56563 14.3486C4.90446 14.7927 1.91266 14.0588 1.09185 11.1811C0.855381 10.3533 0.452881 5.25431 0.452881 4.56564C0.452881 1.11596 3.53596 2.20027 5.43849 3.60115ZM18.4673 3.60115C15.8305 5.54313 12.994 9.48015 11.9529 11.5929V17.1732C11.9529 17.0545 11.9996 17.1887 12.1002 17.4779C12.6436 19.0435 14.7661 25.1541 19.6194 20.2691C22.1749 17.6971 20.9919 15.1251 16.3401 14.3486C19.0013 14.7927 21.9931 14.0588 22.8139 11.1811C23.0504 10.3533 23.4529 5.25431 23.4529 4.56564C23.4529 1.11596 20.3702 2.20027 18.4673 3.60115Z"/>
</svg>