<svg width="24" height="24" viewBox="0 0 24 24" fill="currentColor" xmlns="http://www.w3.org/2000/svg">
<g clip-path="url(#clip0_488_16)">
<path d="M15.9603 7.67049L18.0465 5.58427L18.1856 4.70583C14.3839 1.24899 8.34069 1.64096 4.91366 5.52371C3.96172 6.60211 3.2555 7.94658 2.87891 9.33493L3.62609 9.22964L7.79844 8.54161L8.12056 8.21218C9.97653 6.17386 13.1146 5.89964 15.2576 7.63393L15.9603 7.67049Z" fill="currentColor"/>
<path d="M21.0194 9.27362C20.5399 7.50775 19.5554 5.92028 18.1866 4.70593L15.2586 7.63393C16.4949 8.64418 17.1993 10.1661 17.1691 11.7624V12.2822C18.6082 12.2822 19.7751 13.4489 19.7751 14.888C19.7751 16.3273 18.6082 17.4647 17.1691 17.4647H11.9499L11.4375 18.0211V21.1467L11.9499 21.6371H17.1691C20.9125 21.6662 23.9708 18.6845 24 14.9411C24.0176 12.6721 22.8989 10.5449 21.0194 9.27362Z" fill="currentColor"/>
<path d="M6.73644 21.6371H11.9483V17.4647H6.73644C6.36509 17.4646 6.00547 17.3848 5.66778 17.2305L4.92838 17.4573L2.82753 19.5436L2.64453 20.2536C3.82269 21.1432 5.26016 21.6435 6.73644 21.6371Z" fill="currentColor"/>
<path d="M6.73784 8.10234C2.99431 8.12465 -0.0221895 11.1775 0.000122987 14.921C0.0125917 17.0114 0.988904 18.9792 2.64594 20.2536L5.66919 17.2304C4.35753 16.6378 3.77469 15.0942 4.36728 13.7827C4.95978 12.4711 6.50347 11.8882 7.81493 12.4807C8.3929 12.7418 8.85575 13.2048 9.11684 13.7827L12.1401 10.7595C10.8537 9.0779 8.855 8.09474 6.73784 8.10234Z" fill="currentColor"/>
</g>
<defs>
<clipPath id="clip0_488_16">
<rect width="24" height="24" fill="currentColor"/>
</clipPath>
</defs>
</svg>