<svg width="24" height="24" viewBox="0 0 24 24" fill="none" xmlns="http://www.w3.org/2000/svg">
<path d="M22.3164 15.0535L12.904 21.713C12.638 21.8999 12.3228 22 12 22C11.6772 22 11.362 21.8999 11.096 21.713L1.68363 15.0535C1.41516 14.8628 1.21062 14.5923 1.09781 14.2787C0.984989 13.9651 0.969362 13.6237 1.05305 13.3007L3.76587 2.90371C3.83092 2.6544 3.9718 2.43267 4.16817 2.2705C4.36454 2.10834 4.60625 2.01413 4.85841 2.00148C5.11057 1.98882 5.36014 2.05837 5.57111 2.2001C5.78208 2.34182 5.94354 2.54838 6.03218 2.78997L8.08341 8.38015H15.9166L17.9678 2.78987C18.0565 2.5483 18.2179 2.34176 18.4289 2.20006C18.6399 2.05835 18.8894 1.98881 19.1416 2.00147C19.3937 2.01412 19.6354 2.10832 19.8318 2.27046C20.0281 2.43261 20.169 2.65432 20.2341 2.9036L22.947 13.3007C23.0306 13.6237 23.015 13.9651 22.9022 14.2787C22.7894 14.5923 22.5848 14.8628 22.3164 15.0535Z" fill="currentColor"/>
</svg>
