<svg width="24" height="24" viewBox="0 0 24 24" fill="none" xmlns="http://www.w3.org/2000/svg">
<path d="M1.00012 17.2452L3.43792 15.7605C3.90831 16.5997 4.33613 17.3097 5.36239 17.3097C6.3461 17.3097 6.96644 16.9225 6.96644 15.4162V5.17232H9.96011V15.4588C9.96011 18.5792 8.14253 19.9996 5.49069 19.9996C3.09583 19.9996 1.7057 18.7514 1 17.245M11.5862 16.9224L14.0237 15.5021C14.6655 16.5567 15.4995 17.3314 16.9748 17.3314C18.2154 17.3314 19.0063 16.7072 19.0063 15.8464C19.0063 14.8134 18.1937 14.4475 16.8251 13.8451L16.0769 13.522C13.917 12.5969 12.4843 11.4348 12.4843 8.98143C12.4843 6.72171 14.195 5 16.8681 5C18.7713 5 20.1399 5.66724 21.1234 7.41037L18.7924 8.91694C18.2791 7.99158 17.7233 7.62578 16.8679 7.62578C15.9911 7.62578 15.4351 8.18532 15.4351 8.91694C15.4351 9.82075 15.9911 10.1868 17.2741 10.7464L18.0225 11.0691C20.5673 12.1668 22 13.2857 22 15.8034C22 18.5152 19.883 20 17.0389 20C14.259 20 12.4627 18.6658 11.5861 16.9225" fill="currentColor"/>
</svg>
