<svg width="24" height="24" viewBox="0 0 24 24" fill="none" xmlns="http://www.w3.org/2000/svg">
<g clip-path="url(#clip0_603_3)">
<g clip-path="url(#clip1_603_3)">
<path d="M11.923 0.680712C11.7167 0.691103 11.5146 0.742249 11.3285 0.83115L3.21575 4.70749C3.00578 4.80778 2.82129 4.95369 2.67598 5.1344C2.53067 5.31511 2.42827 5.52596 2.3764 5.7513L0.374912 14.4585C0.328696 14.6592 0.323525 14.8669 0.359705 15.0696C0.395884 15.2722 0.47268 15.4656 0.585546 15.6383C0.61291 15.6805 0.64234 15.7213 0.673731 15.7607L6.28903 22.7424C6.43438 22.9231 6.61889 23.069 6.82887 23.1692C7.03885 23.2694 7.2689 23.3215 7.50194 23.3214L16.507 23.3194C16.7399 23.3195 16.9699 23.2677 17.1799 23.1676C17.3899 23.0676 17.5744 22.9219 17.7199 22.7414L23.3331 15.7586C23.4785 15.5779 23.581 15.3669 23.6329 15.1415C23.6848 14.916 23.6848 14.6819 23.6329 14.4565L21.6284 5.74921C21.5766 5.52387 21.4742 5.31302 21.3288 5.13232C21.1835 4.95162 20.999 4.80571 20.7891 4.70544L12.6753 0.831117C12.4412 0.719292 12.1825 0.667575 11.923 0.680712Z" fill="white"/>
<path d="M11.9987 3.6438C11.7305 3.64383 11.5131 3.88538 11.5131 4.18333C11.5131 4.18791 11.514 4.1923 11.5141 4.19681C11.5137 4.23732 11.5118 4.28609 11.5131 4.32132C11.5195 4.49317 11.5569 4.62472 11.5795 4.78306C11.6203 5.12192 11.6545 5.40285 11.6335 5.66395C11.6129 5.76239 11.5404 5.85244 11.4758 5.91502L11.4643 6.12048C11.1689 6.14479 10.8756 6.18986 10.5865 6.25534C9.32572 6.54164 8.24014 7.19111 7.41368 8.06798C7.35468 8.02725 7.29623 7.98574 7.23834 7.94347C7.15161 7.95519 7.06402 7.98195 6.94988 7.91545C6.73257 7.76919 6.53465 7.56729 6.29516 7.32405C6.18543 7.20771 6.10598 7.09692 5.97559 6.98476C5.94601 6.95929 5.90082 6.92486 5.86769 6.89863C5.76576 6.81739 5.64556 6.77499 5.52946 6.77104C5.38018 6.76592 5.23648 6.82429 5.14245 6.94223C4.97525 7.1519 5.02877 7.4724 5.26175 7.65813C5.26411 7.66002 5.26663 7.66148 5.26902 7.66334C5.30103 7.68927 5.34024 7.72254 5.36966 7.74426C5.50801 7.84642 5.63438 7.89871 5.77223 7.97979C6.06265 8.15915 6.30343 8.30783 6.49438 8.48715C6.56895 8.56664 6.582 8.70672 6.59192 8.76731L6.74754 8.90633C5.9144 10.1602 5.52879 11.7089 5.75669 13.2869L5.55333 13.3461C5.49971 13.4153 5.42397 13.5242 5.34475 13.5567C5.09491 13.6354 4.81372 13.6643 4.47426 13.6999C4.31489 13.7132 4.17734 13.7052 4.00837 13.7372C3.97118 13.7443 3.91939 13.7578 3.87868 13.7673L3.87453 13.7684C3.87231 13.7689 3.86939 13.77 3.86726 13.7704C3.58106 13.8396 3.39722 14.1027 3.45638 14.3619C3.51558 14.6211 3.79515 14.7788 4.08307 14.7167C4.08517 14.7162 4.08819 14.7161 4.09035 14.7157C4.0936 14.7149 4.09645 14.7133 4.09968 14.7125C4.13985 14.7037 4.19012 14.694 4.22525 14.6846C4.39136 14.6401 4.51165 14.5747 4.66102 14.5175C4.98229 14.4023 5.2484 14.306 5.50768 14.2685C5.61592 14.26 5.73003 14.3353 5.78677 14.367L5.99844 14.3307C6.48551 15.8409 7.50628 17.0614 8.79883 17.8273L8.71062 18.039C8.74242 18.1212 8.77749 18.2324 8.75378 18.3136C8.65955 18.5579 8.49812 18.8159 8.31428 19.1035C8.22527 19.2364 8.13416 19.3395 8.05385 19.4916C8.03462 19.528 8.01015 19.5839 7.99159 19.6223C7.86679 19.8894 7.95832 20.1969 8.19808 20.3123C8.43932 20.4284 8.73874 20.3059 8.86833 20.0384C8.86853 20.038 8.86919 20.0377 8.86936 20.0373C8.86949 20.037 8.86922 20.0366 8.86936 20.0363C8.88782 19.9984 8.91398 19.9485 8.92955 19.9128C8.99835 19.7552 9.02125 19.6201 9.06963 19.4677C9.19812 19.145 9.26868 18.8064 9.44554 18.5954C9.49399 18.5376 9.57294 18.5153 9.65482 18.4934L9.76478 18.2942C10.8916 18.7267 12.1529 18.8428 13.4129 18.5568C13.696 18.4923 13.9744 18.4084 14.246 18.3056C14.2769 18.3605 14.3344 18.4659 14.3498 18.4924C14.433 18.5195 14.5238 18.5334 14.5978 18.6428C14.7301 18.869 14.8206 19.1364 14.9308 19.4594C14.9792 19.6118 15.0031 19.7469 15.0719 19.9045C15.0876 19.9404 15.1136 19.991 15.1321 20.029C15.2614 20.2975 15.5618 20.4204 15.8034 20.304C16.0431 20.1885 16.1348 19.881 16.0099 19.614C15.9913 19.5756 15.9658 19.5197 15.9466 19.4833C15.8663 19.3312 15.7752 19.2291 15.6862 19.0963C15.5023 18.8087 15.3498 18.5698 15.2556 18.3253C15.2162 18.1993 15.2622 18.1209 15.2929 18.039C15.2745 18.0179 15.2352 17.8989 15.212 17.8429C16.5553 17.0497 17.5461 15.7836 18.0114 14.3214C18.0742 14.3313 18.1834 14.3506 18.2189 14.3577C18.2919 14.3096 18.359 14.2467 18.4907 14.2571C18.75 14.2946 19.0161 14.3909 19.3374 14.5061C19.4867 14.5633 19.607 14.6297 19.7732 14.6742C19.8083 14.6836 19.8586 14.6923 19.8987 14.7012C19.9019 14.7019 19.9048 14.7035 19.908 14.7042C19.9102 14.7047 19.9132 14.7048 19.9153 14.7053C20.2032 14.7673 20.4828 14.6097 20.542 14.3504C20.6011 14.0912 20.4173 13.8281 20.1311 13.759C20.0895 13.7496 20.0304 13.7335 19.99 13.7258C19.821 13.6938 19.6835 13.7017 19.5241 13.6885C19.1846 13.6529 18.9035 13.624 18.6536 13.5453C18.5517 13.5058 18.4793 13.3846 18.444 13.3347L18.2479 13.2776C18.3496 12.542 18.3222 11.7765 18.1463 11.0105C17.9687 10.2374 17.6549 9.53036 17.2363 8.90739C17.2866 8.86164 17.3816 8.77754 17.4085 8.75277C17.4164 8.66565 17.4096 8.57431 17.4998 8.47782C17.6908 8.29853 17.9316 8.14982 18.222 7.97046C18.3598 7.88935 18.4873 7.83709 18.6256 7.73493C18.6569 7.71182 18.6996 7.67523 18.7325 7.6488C18.9654 7.463 19.019 7.14254 18.8518 6.9329C18.6846 6.72326 18.3605 6.70347 18.1276 6.8893C18.0944 6.91557 18.0494 6.94983 18.0197 6.97543C17.8893 7.08759 17.8088 7.19835 17.6991 7.31472C17.4596 7.55796 17.2616 7.76089 17.0443 7.90718C16.9502 7.96196 16.8123 7.94304 16.7497 7.93932L16.565 8.0711C15.5118 6.9668 14.078 6.26075 12.5341 6.1236C12.5298 6.05889 12.5241 5.94195 12.5226 5.90672C12.4594 5.84626 12.3831 5.79463 12.3639 5.66395C12.3428 5.40285 12.3781 5.12192 12.4189 4.78306C12.4414 4.62472 12.4789 4.49321 12.4853 4.32132C12.4868 4.28228 12.4844 4.22557 12.4843 4.18333C12.4842 3.88538 12.2669 3.6438 11.9987 3.6438ZM11.3907 7.41018L11.2464 9.95738L11.2361 9.96259C11.2264 10.1905 11.0388 10.3724 10.8086 10.3724C10.7143 10.3724 10.6272 10.3421 10.5565 10.2905L10.5523 10.2925L8.46369 8.8119C9.10559 8.18073 9.92668 7.71424 10.8729 7.49943C11.0438 7.46083 11.2167 7.43104 11.3907 7.41018ZM12.6077 7.41018C13.7125 7.54604 14.7341 8.0463 15.517 8.81297L13.4419 10.2842L13.4347 10.2811C13.2505 10.4156 12.991 10.3823 12.8474 10.2023C12.7907 10.1317 12.7579 10.0448 12.754 9.95425L12.7519 9.95326L12.6077 7.41018ZM7.70625 9.76338L9.61331 11.4691L9.61122 11.4795C9.78338 11.6291 9.80878 11.8888 9.66518 12.0688C9.60857 12.1399 9.53081 12.1912 9.44315 12.2151L9.44106 12.2234L6.99656 12.929C6.87215 11.7913 7.14029 10.6854 7.70625 9.76338ZM16.2776 9.76437C16.561 10.2237 16.7755 10.7366 16.9032 11.2927C17.0294 11.8422 17.0611 12.3906 17.0091 12.9207L14.5521 12.2131L14.55 12.2027C14.33 12.1426 14.1948 11.9188 14.246 11.6943C14.266 11.606 14.3136 11.5264 14.382 11.467L14.3809 11.4619L16.2776 9.76441V9.76437ZM11.6075 11.6009H12.3888L12.8744 12.2079L12.7001 12.9653L11.9987 13.3025L11.2952 12.9643L11.1209 12.2068L11.6075 11.6009ZM14.1122 13.6781C14.1454 13.6764 14.1784 13.6794 14.2108 13.6854L14.2149 13.6802L16.7435 14.1076C16.3734 15.1473 15.6653 16.048 14.7192 16.6507L13.7376 14.2799L13.7407 14.2757C13.6506 14.0662 13.7408 13.8205 13.9482 13.7206C14.0014 13.6951 14.0569 13.6809 14.1122 13.6781ZM9.86545 13.6885C10.0584 13.6912 10.2315 13.8251 10.2763 14.0215C10.2973 14.1135 10.2871 14.2046 10.2524 14.2851L10.2597 14.2944L9.28856 16.6414C8.38055 16.0587 7.65735 15.1863 7.27048 14.1159L9.77723 13.6906L9.78138 13.6957C9.80944 13.6906 9.83786 13.6881 9.86545 13.6885ZM11.9831 14.7167C12.0523 14.7143 12.1211 14.7289 12.1834 14.7592C12.2684 14.8002 12.334 14.8646 12.3753 14.9418H12.3847L13.6204 17.1747C13.4582 17.2289 13.2933 17.275 13.1265 17.3127C12.1814 17.5273 11.2394 17.4622 10.3863 17.1716L11.6189 14.9429H11.621C11.6563 14.8768 11.7084 14.8212 11.7719 14.7815C11.8354 14.7418 11.9083 14.7195 11.9831 14.7167L11.9831 14.7167Z" fill="#393939" stroke="#393939" stroke-width="0.196356"/>
</g>
</g>
<defs>
<clipPath id="clip0_603_3">
<rect width="24" height="24" fill="white"/>
</clipPath>
<clipPath id="clip1_603_3">
<rect width="24" height="24" fill="white"/>
</clipPath>
</defs>
</svg>
