<svg width="283" height="109" viewBox="0 0 283 109" fill="none" xmlns="http://www.w3.org/2000/svg">
<g clip-path="url(#clip0_456_2)">
<path d="M7.27961 10.3727L0.535156 6.40443V5.5104L7.23256 1.94995V3.40864L2.135 5.96526L7.27961 8.81989V10.3727Z" fill="#99E1FF"/>
<path d="M8.80104 0.506954H10.495V0.648117C10.4323 0.710856 10.3904 0.778824 10.3695 0.85202C10.3591 0.925215 10.3538 1.05069 10.3538 1.22845V4.80458C10.5316 4.54317 10.7407 4.32358 10.9812 4.14582C11.2322 3.95761 11.4884 3.81644 11.7498 3.72233C12.0216 3.61777 12.2935 3.56549 12.5654 3.56549C13.0255 3.56549 13.4228 3.67005 13.7574 3.87918C14.1025 4.08831 14.3691 4.41769 14.5574 4.86732C14.7456 5.3065 14.8397 5.89206 14.8397 6.62402V11.0001H13.3026V6.6397C13.3026 6.19007 13.2555 5.83455 13.1614 5.57314C13.0673 5.30127 12.9366 5.10782 12.7693 4.9928C12.602 4.86732 12.4033 4.80458 12.1733 4.80458C11.985 4.80458 11.8021 4.83595 11.6243 4.89869C11.457 4.96143 11.2949 5.05031 11.1381 5.16533C10.9812 5.2699 10.8453 5.40583 10.7303 5.57314C10.6152 5.74044 10.5211 5.92866 10.4479 6.13779C10.3852 6.34692 10.3538 6.57697 10.3538 6.82792V11.0001H8.80104V0.506954Z" fill="#99E1FF"/>
<path d="M20.3764 11.1412C19.9477 11.1412 19.5765 11.0733 19.2628 10.9373C18.9595 10.7909 18.7138 10.5609 18.5256 10.2472C18.3478 9.93351 18.2224 9.5257 18.1492 9.02379C18.076 8.52188 18.0498 7.91017 18.0707 7.18867L18.2746 1.98132L19.8745 1.77742L20.0313 1.76174L20.047 1.9029C19.9947 1.9761 19.9477 2.04929 19.9059 2.12249C19.8745 2.19568 19.8484 2.32116 19.8274 2.49892L19.6706 4.52226L19.7333 4.69479L19.6235 7.18867C19.5922 7.89972 19.6131 8.45391 19.6863 8.85126C19.7595 9.23815 19.8849 9.51002 20.0627 9.66687C20.2405 9.81326 20.4548 9.88645 20.7058 9.88645C21.0404 9.88645 21.3384 9.81849 21.5998 9.68255C21.8717 9.54662 22.1383 9.37931 22.3997 9.18064L22.7448 10.3413C22.3893 10.6027 22.0181 10.8014 21.6312 10.9373C21.2443 11.0733 20.826 11.1412 20.3764 11.1412ZM16.6591 3.73802H22.1331L22.1174 4.9928H16.6591V3.73802Z" fill="#99E1FF"/>
<path d="M24.0466 11.0001V3.73802H25.3799V4.33404C25.4949 4.16674 25.6203 4.0308 25.7563 3.92624C25.9027 3.81122 26.0543 3.72233 26.2111 3.6596C26.3784 3.59686 26.5458 3.56549 26.7131 3.56549C26.9013 3.56549 27.079 3.60208 27.2463 3.67528C27.4136 3.74848 27.56 3.85304 27.6855 3.98898C27.811 4.12491 27.9051 4.30267 27.9678 4.52226C28.0724 4.31313 28.1979 4.1406 28.3443 4.00466C28.5011 3.86873 28.6789 3.76416 28.8776 3.69097C29.0867 3.60731 29.3063 3.56549 29.5363 3.56549C29.7873 3.56549 30.0016 3.61777 30.1794 3.72233C30.3676 3.81644 30.5192 3.95238 30.6343 4.13014C30.7597 4.29744 30.8486 4.50657 30.9009 4.75753C30.9636 4.99803 30.9898 5.2699 30.9793 5.57314V11.0001H29.6147V5.98094C29.6147 5.61496 29.5938 5.3431 29.552 5.16533C29.5102 4.98757 29.4474 4.86732 29.3638 4.80458C29.2906 4.74185 29.2017 4.71048 29.0971 4.71048C28.9403 4.71048 28.7887 4.78367 28.6423 4.93006C28.5063 5.066 28.3913 5.25422 28.2972 5.49472C28.2136 5.73522 28.1717 6.00186 28.1717 6.29464V11.0001H26.8542V6.04368C26.8542 5.49994 26.8072 5.13919 26.7131 4.96143C26.6294 4.78367 26.4778 4.69479 26.2582 4.69479C26.1536 4.69479 26.0491 4.73139 25.9445 4.80458C25.8504 4.86732 25.7615 4.96666 25.6779 5.1026C25.5942 5.22807 25.5262 5.38492 25.474 5.57314C25.4321 5.76136 25.4112 5.98094 25.4112 6.2319V11.0001H24.0466Z" fill="#99E1FF"/>
<path d="M32.438 11.0001V9.76098H34.5084V1.74605H32.5321V0.506954H36.0926V9.76098H38.1473V11.0001H32.438Z" fill="#99E1FF"/>
<path d="M48.1228 11.0001V9.76098H50.1932V1.74605H48.2169V0.506954H51.7773V9.76098H53.832V11.0001H48.1228Z" fill="#99E1FF"/>
<path d="M58.0669 11.1726C57.2618 11.1726 56.6344 10.9896 56.1848 10.6236C55.7456 10.2472 55.526 9.76098 55.526 9.16495C55.526 8.76761 55.6149 8.41209 55.7926 8.09839C55.9809 7.77424 56.2423 7.49714 56.5769 7.2671C56.9219 7.03705 57.335 6.85929 57.816 6.73381C58.297 6.59788 58.8407 6.52991 59.4472 6.52991C59.5727 6.52991 59.7034 6.53514 59.8393 6.5456C59.9857 6.5456 60.1373 6.55082 60.2942 6.56128C60.4615 6.57174 60.6288 6.58219 60.7961 6.59265L60.8431 7.70627C60.6968 7.68536 60.5399 7.66967 60.3726 7.65921C60.2158 7.64876 60.0589 7.64353 59.9021 7.64353C59.7452 7.64353 59.5988 7.64353 59.4629 7.64353C59.0551 7.64353 58.6996 7.6749 58.3963 7.73764C58.1035 7.78992 57.8578 7.87357 57.6591 7.9886C57.4709 8.10362 57.3298 8.24478 57.2356 8.41208C57.1415 8.57939 57.0945 8.77284 57.0945 8.99242C57.0945 9.17018 57.1258 9.32703 57.1886 9.46297C57.2513 9.58844 57.335 9.68778 57.4395 9.76098C57.5546 9.83417 57.6853 9.89168 57.8317 9.93351C57.9885 9.96488 58.1558 9.98056 58.3336 9.98056C58.6786 9.98056 58.9819 9.92305 59.2433 9.80803C59.5047 9.69301 59.7243 9.5257 59.9021 9.30612C60.0903 9.07607 60.2314 8.79375 60.3255 8.45914C60.4197 8.11407 60.4667 7.7115 60.4667 7.25141C60.4667 6.61356 60.3935 6.11688 60.2471 5.76136C60.1112 5.40583 59.9073 5.16011 59.6354 5.02417C59.3635 4.88824 59.0237 4.82027 58.6159 4.82027C58.2813 4.82027 57.9571 4.87778 57.6434 4.9928C57.3402 5.09737 57.0422 5.29604 56.7494 5.58882L55.9181 4.64774C56.3155 4.2713 56.7494 3.99943 57.22 3.83213C57.701 3.66482 58.1924 3.58117 58.6943 3.58117C59.1544 3.58117 59.5779 3.63868 59.9648 3.7537C60.3621 3.85827 60.7072 4.03603 61 4.28699C61.3032 4.53794 61.5333 4.87778 61.6901 5.3065C61.8574 5.73522 61.9411 6.27895 61.9411 6.93772V11.0001H60.3099V10.106C60.1739 10.3152 60.0223 10.4929 59.855 10.6393C59.6877 10.7753 59.5047 10.8851 59.306 10.9687C59.1178 11.0419 58.9191 11.0942 58.71 11.1256C58.5009 11.1569 58.2865 11.1726 58.0669 11.1726Z" fill="#99E1FF"/>
<path d="M63.6821 11.0001V3.73802H65.2506V4.85164C65.4283 4.59023 65.627 4.36541 65.8466 4.17719C66.0662 3.98898 66.3119 3.84258 66.5838 3.73802C66.8556 3.623 67.1484 3.56549 67.4621 3.56549C67.8699 3.56549 68.2464 3.67005 68.5914 3.87918C68.9365 4.08831 69.2136 4.41769 69.4227 4.86732C69.6319 5.3065 69.7364 5.89206 69.7364 6.62402V11.0001H68.1836V6.6397C68.1836 6.21099 68.1366 5.86069 68.0425 5.58882C67.9483 5.31695 67.8124 5.11828 67.6347 4.9928C67.4673 4.86732 67.2634 4.80458 67.0229 4.80458C66.8138 4.80458 66.6047 4.85164 66.3956 4.94575C66.1864 5.03986 65.993 5.17056 65.8152 5.33787C65.6479 5.49472 65.512 5.69339 65.4074 5.93389C65.3029 6.16393 65.2506 6.42535 65.2506 6.71813V11.0001H63.6821Z" fill="#99E1FF"/>
<path d="M74.3634 13.7606C73.8615 13.7606 73.4067 13.7188 72.9988 13.6351C72.591 13.5515 72.2408 13.426 71.948 13.2587C71.6656 13.1018 71.4513 12.9032 71.3049 12.6627C71.1585 12.4326 71.0853 12.1712 71.0853 11.8784C71.0853 11.6066 71.148 11.3608 71.2735 11.1412C71.399 10.9217 71.5663 10.7334 71.7754 10.5766C71.9846 10.4093 72.2146 10.2838 72.4656 10.2001L73.1557 10.5138C72.9884 10.6184 72.842 10.723 72.7165 10.8275C72.591 10.9321 72.4917 11.0471 72.4185 11.1726C72.3558 11.3085 72.3244 11.4654 72.3244 11.6432C72.3244 11.8 72.3767 11.9359 72.4813 12.051C72.5858 12.166 72.7322 12.2601 72.9204 12.3333C73.1086 12.4065 73.3335 12.464 73.5949 12.5058C73.8563 12.5476 74.1491 12.5686 74.4732 12.5686C74.9019 12.5686 75.2575 12.5267 75.5398 12.4431C75.8221 12.3699 76.0312 12.2601 76.1672 12.1137C76.3136 11.9673 76.3868 11.8 76.3868 11.6118C76.3868 11.4236 76.3449 11.2719 76.2613 11.1569C76.1776 11.0524 76.0208 10.9739 75.7907 10.9216C75.5607 10.8589 75.2261 10.8275 74.7869 10.8275C74.4314 10.8275 74.0916 10.8171 73.7674 10.7962C73.4537 10.7648 73.1609 10.7125 72.8891 10.6393C72.6276 10.5661 72.3976 10.472 72.1989 10.357C72.0003 10.242 71.8434 10.1008 71.7284 9.93351C71.6238 9.75575 71.5715 9.54662 71.5715 9.30612C71.5715 8.99242 71.6656 8.7101 71.8539 8.45914C72.0421 8.19773 72.2774 7.96245 72.5597 7.75332L73.2655 8.1925C73.1714 8.29706 73.0877 8.38594 73.0145 8.45914C72.9413 8.53233 72.8838 8.60553 72.842 8.67873C72.8002 8.74147 72.7793 8.81989 72.7793 8.914C72.7793 9.04993 72.8577 9.16495 73.0145 9.25906C73.1714 9.35317 73.4223 9.42114 73.7674 9.46297C74.1229 9.50479 74.5935 9.5257 75.179 9.5257C75.6705 9.5257 76.0783 9.57799 76.4025 9.68255C76.7371 9.77666 76.9985 9.9126 77.1867 10.0904C77.3749 10.2681 77.5056 10.472 77.5788 10.7021C77.6625 10.9216 77.7043 11.1674 77.7043 11.4392C77.7043 11.732 77.6415 12.0144 77.5161 12.2862C77.3906 12.5686 77.1919 12.8195 76.92 13.0391C76.6586 13.2587 76.3136 13.4312 75.8848 13.5567C75.4666 13.6926 74.9594 13.7606 74.3634 13.7606ZM74.1595 8.55325C73.6472 8.55325 73.1923 8.44345 72.7949 8.22387C72.3976 7.99382 72.0839 7.69058 71.8539 7.31415C71.6343 6.93771 71.5245 6.51423 71.5245 6.04368C71.5245 5.57314 71.6343 5.14965 71.8539 4.77322C72.0839 4.38632 72.3976 4.08308 72.7949 3.8635C73.1923 3.63345 73.6472 3.51843 74.1595 3.51843C74.6823 3.51843 75.1424 3.63345 75.5398 3.8635C75.9371 4.08308 76.2456 4.38632 76.4652 4.77322C76.6952 5.14965 76.8102 5.57314 76.8102 6.04368C76.8102 6.51423 76.6952 6.93771 76.4652 7.31415C76.2456 7.69058 75.9371 7.99382 75.5398 8.22387C75.1424 8.44345 74.6823 8.55325 74.1595 8.55325ZM74.1595 7.37689C74.4209 7.37689 74.651 7.31938 74.8497 7.20436C75.0483 7.08933 75.2052 6.93249 75.3202 6.73381C75.4352 6.52468 75.4927 6.29464 75.4927 6.04368C75.4927 5.78227 75.4352 5.55745 75.3202 5.36924C75.2052 5.17056 75.0431 5.01371 74.834 4.89869C74.6353 4.78367 74.4105 4.72616 74.1595 4.72616C73.919 4.72616 73.6994 4.78367 73.5008 4.89869C73.3021 5.01371 73.14 5.17056 73.0145 5.36924C72.8995 5.56791 72.842 5.79273 72.842 6.04368C72.842 6.28418 72.8995 6.509 73.0145 6.71813C73.1296 6.9168 73.2864 7.07888 73.4851 7.20436C73.6838 7.31938 73.9086 7.37689 74.1595 7.37689ZM76.3711 5.02417L75.7751 4.28699C76.0783 4.03603 76.4077 3.84781 76.7632 3.72233C77.1292 3.5864 77.5318 3.53412 77.9709 3.56549L78.1278 4.67911C77.8036 4.63728 77.4899 4.64251 77.1867 4.69479C76.8835 4.73662 76.6116 4.84641 76.3711 5.02417Z" fill="#99E1FF"/>
<path d="M79.1002 5.02417V3.80076H85.6251V5.02417H79.1002ZM79.1002 8.30229V7.06319H85.6251V8.30229H79.1002Z" fill="#99E1FF"/>
<path d="M90.5034 -0.196777L90.6106 -0.0282885C90.3298 1.05923 89.8805 2.28205 89.2627 3.64017H88.0526C88.3845 2.28205 88.6423 1.00307 88.8261 -0.196777H90.5034ZM93.7659 -0.196777L93.8732 -0.0282885C93.5923 1.05923 93.143 2.28205 92.5252 3.64017H91.3152C91.6471 2.28205 91.9049 1.00307 92.0887 -0.196777H93.7659Z" fill="#FF81E3"/>
<path d="M99.9388 11.1726C99.416 11.1726 98.935 11.089 98.4958 10.9216C98.0566 10.7543 97.675 10.5138 97.3508 10.2001C97.0371 9.876 96.7914 9.47865 96.6136 9.00811C96.4359 8.53756 96.347 8.00428 96.347 7.40826C96.347 6.80178 96.4359 6.26327 96.6136 5.79273C96.7914 5.31173 97.0319 4.90915 97.3351 4.585C97.6488 4.26085 98.0096 4.00989 98.4174 3.83213C98.8356 3.65437 99.2801 3.56549 99.7506 3.56549C100.158 3.56549 100.545 3.63868 100.911 3.78507C101.288 3.93147 101.612 4.15105 101.884 4.44383C102.166 4.72616 102.386 5.08691 102.542 5.52608C102.71 5.96526 102.793 6.47763 102.793 7.06319C102.793 7.16776 102.793 7.28801 102.793 7.42394C102.793 7.54942 102.788 7.65921 102.778 7.75332H97.8527C97.8737 8.12976 97.9468 8.45914 98.0723 8.74147C98.1978 9.01334 98.3547 9.23815 98.5429 9.41591C98.7415 9.59367 98.9664 9.72438 99.2173 9.80803C99.4683 9.89168 99.7297 9.93351 100.002 9.93351C100.242 9.93351 100.462 9.9126 100.66 9.87077C100.869 9.81849 101.068 9.74006 101.256 9.6355C101.445 9.53093 101.617 9.38977 101.774 9.21201L102.59 10.0119C102.37 10.2733 102.124 10.4929 101.852 10.6707C101.58 10.838 101.282 10.9635 100.958 11.0471C100.645 11.1308 100.305 11.1726 99.9388 11.1726ZM97.8841 6.57697H101.272C101.272 6.28418 101.235 6.028 101.162 5.80841C101.089 5.58882 100.979 5.40061 100.833 5.24376C100.697 5.08691 100.53 4.97189 100.331 4.89869C100.132 4.81504 99.9127 4.77322 99.6722 4.77322C99.4421 4.77322 99.2278 4.80981 99.0291 4.88301C98.8409 4.9562 98.6683 5.066 98.5115 5.21239C98.3546 5.35878 98.2187 5.547 98.1037 5.77704C97.9991 5.99663 97.9259 6.26327 97.8841 6.57697Z" fill="#FF81E3"/>
<path d="M104.472 11.0001V3.73802H106.04V4.85164C106.218 4.59023 106.417 4.36541 106.636 4.17719C106.856 3.98898 107.102 3.84258 107.373 3.73802C107.645 3.623 107.938 3.56549 108.252 3.56549C108.66 3.56549 109.036 3.67005 109.381 3.87918C109.726 4.08831 110.003 4.41769 110.212 4.86732C110.421 5.3065 110.526 5.89206 110.526 6.62402V11.0001H108.973V6.6397C108.973 6.21099 108.926 5.86069 108.832 5.58882C108.738 5.31695 108.602 5.11828 108.424 4.9928C108.257 4.86732 108.053 4.80458 107.813 4.80458C107.603 4.80458 107.394 4.85164 107.185 4.94575C106.976 5.03986 106.783 5.17056 106.605 5.33787C106.438 5.49472 106.302 5.69339 106.197 5.93389C106.092 6.16393 106.04 6.42535 106.04 6.71813V11.0001H104.472Z" fill="#FF81E3"/>
<path d="M115.608 -0.196777L115.715 -0.0282885C115.435 1.05923 114.985 2.28205 114.368 3.64017H113.157C113.489 2.28205 113.747 1.00307 113.931 -0.196777H115.608ZM118.871 -0.196777L118.978 -0.0282885C118.697 1.05923 118.248 2.28205 117.63 3.64017H116.42C116.752 2.28205 117.01 1.00307 117.194 -0.196777H118.871Z" fill="#FF81E3"/>
<path d="M121.405 10.3727V8.86694L126.534 5.96526L121.42 3.40864V1.94995L128.149 5.5104V6.40443L121.405 10.3727Z" fill="white"/>
<path d="M7.27961 29.3727L0.535156 25.4044V24.5104L7.23256 20.95V22.4086L2.135 24.9653L7.27961 27.8199V29.3727Z" fill="#99E1FF"/>
<path d="M8.80104 19.507H10.495V19.6481C10.4323 19.7109 10.3904 19.7788 10.3695 19.852C10.3591 19.9252 10.3538 20.0507 10.3538 20.2285V23.8046C10.5316 23.5432 10.7407 23.3236 10.9812 23.1458C11.2322 22.9576 11.4884 22.8164 11.7498 22.7223C12.0216 22.6178 12.2935 22.5655 12.5654 22.5655C13.0255 22.5655 13.4228 22.6701 13.7574 22.8792C14.1025 23.0883 14.3691 23.4177 14.5574 23.8673C14.7456 24.3065 14.8397 24.8921 14.8397 25.624V30.0001H13.3026V25.6397C13.3026 25.1901 13.2555 24.8346 13.1614 24.5731C13.0673 24.3013 12.9366 24.1078 12.7693 23.9928C12.602 23.8673 12.4033 23.8046 12.1733 23.8046C11.985 23.8046 11.8021 23.836 11.6243 23.8987C11.457 23.9614 11.2949 24.0503 11.1381 24.1653C10.9812 24.2699 10.8453 24.4058 10.7303 24.5731C10.6152 24.7404 10.5211 24.9287 10.4479 25.1378C10.3852 25.3469 10.3538 25.577 10.3538 25.8279V30.0001H8.80104V19.507Z" fill="#99E1FF"/>
<path d="M19.9372 30.1726C19.4144 30.1726 18.9334 30.089 18.4942 29.9216C18.0551 29.7543 17.6734 29.5138 17.3492 29.2001C17.0355 28.876 16.7898 28.4786 16.6121 28.0081C16.4343 27.5376 16.3454 27.0043 16.3454 26.4083C16.3454 25.8018 16.4343 25.2633 16.6121 24.7927C16.7898 24.3117 17.0303 23.9091 17.3336 23.585C17.6473 23.2608 18.008 23.0099 18.4158 22.8321C18.8341 22.6544 19.2785 22.5655 19.749 22.5655C20.1568 22.5655 20.5437 22.6387 20.9097 22.7851C21.2861 22.9315 21.6103 23.1511 21.8821 23.4438C22.1645 23.7262 22.3841 24.0869 22.5409 24.5261C22.7082 24.9653 22.7919 25.4776 22.7919 26.0632C22.7919 26.1678 22.7919 26.288 22.7919 26.4239C22.7919 26.5494 22.7866 26.6592 22.7762 26.7533H17.8512C17.8721 27.1298 17.9453 27.4591 18.0707 27.7415C18.1962 28.0133 18.3531 28.2381 18.5413 28.4159C18.74 28.5937 18.9648 28.7244 19.2157 28.808C19.4667 28.8917 19.7281 28.9335 20 28.9335C20.2405 28.9335 20.4601 28.9126 20.6587 28.8708C20.8679 28.8185 21.0665 28.7401 21.2548 28.6355C21.443 28.5309 21.6155 28.3898 21.7724 28.212L22.588 29.0119C22.3684 29.2733 22.1226 29.4929 21.8508 29.6707C21.5789 29.838 21.2809 29.9635 20.9567 30.0471C20.643 30.1308 20.3032 30.1726 19.9372 30.1726ZM17.8825 25.577H21.2704C21.2704 25.2842 21.2338 25.028 21.1606 24.8084C21.0874 24.5888 20.9777 24.4006 20.8313 24.2438C20.6953 24.0869 20.528 23.9719 20.3294 23.8987C20.1307 23.815 19.9111 23.7732 19.6706 23.7732C19.4405 23.7732 19.2262 23.8098 19.0275 23.883C18.8393 23.9562 18.6668 24.066 18.5099 24.2124C18.3531 24.3588 18.2171 24.547 18.1021 24.777C17.9975 24.9966 17.9244 25.2633 17.8825 25.577Z" fill="#99E1FF"/>
<path d="M26.6974 30.1726C25.8922 30.1726 25.2648 29.9896 24.8152 29.6236C24.376 29.2472 24.1564 28.761 24.1564 28.165C24.1564 27.7676 24.2453 27.4121 24.4231 27.0984C24.6113 26.7742 24.8727 26.4971 25.2073 26.2671C25.5524 26.0371 25.9654 25.8593 26.4464 25.7338C26.9274 25.5979 27.4712 25.5299 28.0776 25.5299C28.2031 25.5299 28.3338 25.5351 28.4698 25.5456C28.6161 25.5456 28.7678 25.5508 28.9246 25.5613C29.0919 25.5717 29.2592 25.5822 29.4265 25.5926L29.4736 26.7063C29.3272 26.6854 29.1703 26.6697 29.003 26.6592C28.8462 26.6488 28.6893 26.6435 28.5325 26.6435C28.3756 26.6435 28.2293 26.6435 28.0933 26.6435C27.6855 26.6435 27.33 26.6749 27.0268 26.7376C26.734 26.7899 26.4882 26.8736 26.2896 26.9886C26.1014 27.1036 25.9602 27.2448 25.8661 27.4121C25.772 27.5794 25.7249 27.7728 25.7249 27.9924C25.7249 28.1702 25.7563 28.327 25.819 28.463C25.8818 28.5884 25.9654 28.6878 26.07 28.761C26.185 28.8342 26.3157 28.8917 26.4621 28.9335C26.6189 28.9649 26.7863 28.9806 26.964 28.9806C27.3091 28.9806 27.6123 28.9231 27.8737 28.808C28.1351 28.693 28.3547 28.5257 28.5325 28.3061C28.7207 28.0761 28.8619 27.7937 28.956 27.4591C29.0501 27.1141 29.0971 26.7115 29.0971 26.2514C29.0971 25.6136 29.0239 25.1169 28.8776 24.7614C28.7416 24.4058 28.5377 24.1601 28.2659 24.0242C27.994 23.8882 27.6541 23.8203 27.2463 23.8203C26.9117 23.8203 26.5876 23.8778 26.2739 23.9928C25.9706 24.0974 25.6726 24.296 25.3799 24.5888L24.5486 23.6477C24.9459 23.2713 25.3798 22.9994 25.8504 22.8321C26.3314 22.6648 26.8228 22.5812 27.3248 22.5812C27.7848 22.5812 28.2083 22.6387 28.5952 22.7537C28.9926 22.8583 29.3376 23.036 29.6304 23.287C29.9337 23.5379 30.1637 23.8778 30.3206 24.3065C30.4879 24.7352 30.5715 25.279 30.5715 25.9377V30.0001H28.9403V29.106C28.8044 29.3152 28.6527 29.4929 28.4854 29.6393C28.3181 29.7753 28.1351 29.8851 27.9365 29.9687C27.7483 30.0419 27.5496 30.0942 27.3404 30.1256C27.1313 30.1569 26.917 30.1726 26.6974 30.1726Z" fill="#99E1FF"/>
<path d="M34.9476 30.1726C34.5607 30.1726 34.1842 30.0942 33.8183 29.9373C33.4627 29.77 33.1438 29.5295 32.8615 29.2158C32.5792 28.9021 32.3544 28.5048 32.187 28.0238C32.0302 27.5323 31.9518 26.9677 31.9518 26.3298C31.9518 25.6815 32.0302 25.1221 32.187 24.6516C32.3544 24.181 32.5792 23.7941 32.8615 23.4909C33.1438 23.1772 33.468 22.9471 33.834 22.8008C34.1999 22.6439 34.5816 22.5655 34.9789 22.5655C35.2613 22.5655 35.5175 22.6021 35.7475 22.6753C35.988 22.7485 36.2024 22.8583 36.3906 23.0047C36.5788 23.1511 36.7304 23.334 36.8454 23.5536V19.507H38.508V19.6481C38.4557 19.7109 38.4191 19.7788 38.3982 19.852C38.3773 19.9252 38.3721 20.0507 38.3825 20.2285V28.9806C38.3825 29.1479 38.3878 29.3204 38.3982 29.4982C38.4191 29.6655 38.4662 29.8328 38.5394 30.0001H37.0023C36.95 29.8851 36.9134 29.7805 36.8925 29.6864C36.8716 29.5923 36.8611 29.4982 36.8611 29.4041C36.8611 29.3099 36.8611 29.2106 36.8611 29.106C36.7147 29.3256 36.5474 29.5191 36.3592 29.6864C36.171 29.8432 35.9566 29.9635 35.7161 30.0471C35.4756 30.1308 35.2194 30.1726 34.9476 30.1726ZM35.2142 28.8865C35.4965 28.8865 35.737 28.8289 35.9357 28.7139C36.1344 28.5989 36.2965 28.4316 36.4219 28.212C36.5474 27.9924 36.6415 27.7258 36.7043 27.4121C36.767 27.0984 36.7984 26.7429 36.7984 26.3455C36.7984 25.8122 36.7409 25.3574 36.6258 24.9809C36.5108 24.5941 36.3278 24.3013 36.0769 24.1026C35.8364 23.8935 35.5279 23.7889 35.1515 23.7889C34.8796 23.7889 34.6391 23.8464 34.43 23.9614C34.2208 24.0765 34.0431 24.2438 33.8967 24.4633C33.7608 24.6725 33.6562 24.9287 33.583 25.2319C33.5098 25.5351 33.4732 25.875 33.4732 26.2514C33.4732 26.7847 33.5464 27.25 33.6928 27.6474C33.8496 28.0447 34.0588 28.3532 34.3202 28.5728C34.5816 28.7819 34.8796 28.8865 35.2142 28.8865Z" fill="#99E1FF"/>
<path d="M39.8255 29.3727V27.8669L44.9545 24.9653L39.8412 22.4086V20.95L46.57 24.5104V25.4044L39.8255 29.3727Z" fill="#99E1FF"/>
<path d="M54.334 29.3727L47.5895 25.4044V24.5104L54.2869 20.95V22.4086L49.1894 24.9653L54.334 27.8199V29.3727Z" fill="#99E1FF"/>
<path d="M59.5884 30.1412C59.1596 30.1412 58.7884 30.0733 58.4747 29.9373C58.1715 29.7909 57.9258 29.5609 57.7376 29.2472C57.5598 28.9335 57.4343 28.5257 57.3611 28.0238C57.2879 27.5219 57.2618 26.9102 57.2827 26.1887L57.4866 20.9813L59.0864 20.7774L59.2433 20.7617L59.259 20.9029C59.2067 20.9761 59.1596 21.0493 59.1178 21.1225C59.0864 21.1957 59.0603 21.3212 59.0394 21.4989L58.8825 23.5223L58.9453 23.6948L58.8355 26.1887C58.8041 26.8997 58.825 27.4539 58.8982 27.8513C58.9714 28.2382 59.0969 28.51 59.2747 28.6669C59.4524 28.8133 59.6668 28.8865 59.9177 28.8865C60.2523 28.8865 60.5504 28.8185 60.8118 28.6826C61.0836 28.5466 61.3503 28.3793 61.6117 28.1806L61.9568 29.3413C61.6012 29.6027 61.23 29.8014 60.8431 29.9373C60.4563 30.0733 60.038 30.1412 59.5884 30.1412ZM55.8711 22.738H61.3451L61.3294 23.9928H55.8711V22.738Z" fill="#99E1FF"/>
<path d="M64.1526 30.0001V28.761H65.9564V23.9771H64.2311V22.738H67.5249V28.761H69.1718V30.0001H64.1526ZM66.6465 21.4362C66.3642 21.4362 66.1237 21.3421 65.925 21.1539C65.7368 20.9552 65.6427 20.7251 65.6427 20.4637C65.6427 20.1814 65.7368 19.9461 65.925 19.7579C66.1132 19.5697 66.3537 19.4756 66.6465 19.4756C66.9184 19.4756 67.1537 19.5749 67.3523 19.7736C67.5615 19.9723 67.666 20.2023 67.666 20.4637C67.666 20.7251 67.5615 20.9552 67.3523 21.1539C67.1537 21.3421 66.9184 21.4362 66.6465 21.4362Z" fill="#99E1FF"/>
<path d="M75.2731 30.1412C74.8444 30.1412 74.4732 30.0733 74.1595 29.9373C73.8563 29.7909 73.6106 29.5609 73.4223 29.2472C73.2446 28.9335 73.1191 28.5257 73.0459 28.0238C72.9727 27.5219 72.9466 26.9102 72.9675 26.1887L73.1714 20.9813L74.7712 20.7774L74.9281 20.7617L74.9438 20.9029C74.8915 20.9761 74.8444 21.0493 74.8026 21.1225C74.7712 21.1957 74.7451 21.3212 74.7242 21.4989L74.5673 23.5223L74.6301 23.6948L74.5203 26.1887C74.4889 26.8997 74.5098 27.4539 74.583 27.8513C74.6562 28.2382 74.7817 28.51 74.9594 28.6669C75.1372 28.8133 75.3516 28.8865 75.6025 28.8865C75.9371 28.8865 76.2351 28.8185 76.4966 28.6826C76.7684 28.5466 77.0351 28.3793 77.2965 28.1806L77.6415 29.3413C77.286 29.6027 76.9148 29.8014 76.5279 29.9373C76.141 30.0733 75.7228 30.1412 75.2731 30.1412ZM71.5558 22.738H77.0298L77.0142 23.9928H71.5558V22.738Z" fill="#99E1FF"/>
<path d="M79.4923 30.0001V28.761H81.5627V20.7461H79.5865V19.507H83.1469V28.761H85.2016V30.0001H79.4923Z" fill="#99E1FF"/>
<path d="M90.5188 30.1726C89.9959 30.1726 89.5149 30.089 89.0758 29.9216C88.6366 29.7543 88.2549 29.5138 87.9308 29.2001C87.6171 28.876 87.3713 28.4786 87.1936 28.0081C87.0158 27.5376 86.9269 27.0043 86.9269 26.4083C86.9269 25.8018 87.0158 25.2633 87.1936 24.7927C87.3713 24.3117 87.6118 23.9091 87.9151 23.585C88.2288 23.2608 88.5895 23.0099 88.9973 22.8321C89.4156 22.6544 89.86 22.5655 90.3305 22.5655C90.7383 22.5655 91.1252 22.6387 91.4912 22.7851C91.8676 22.9315 92.1918 23.1511 92.4637 23.4438C92.746 23.7262 92.9656 24.0869 93.1224 24.5261C93.2897 24.9653 93.3734 25.4776 93.3734 26.0632C93.3734 26.1678 93.3734 26.288 93.3734 26.4239C93.3734 26.5494 93.3682 26.6592 93.3577 26.7533H88.4327C88.4536 27.1298 88.5268 27.4591 88.6523 27.7415C88.7777 28.0133 88.9346 28.2381 89.1228 28.4159C89.3215 28.5937 89.5463 28.7244 89.7973 28.808C90.0482 28.8917 90.3096 28.9335 90.5815 28.9335C90.822 28.9335 91.0416 28.9126 91.2403 28.8708C91.4494 28.8185 91.6481 28.7401 91.8363 28.6355C92.0245 28.5309 92.197 28.3898 92.3539 28.212L93.1695 29.0119C92.9499 29.2733 92.7042 29.4929 92.4323 29.6707C92.1604 29.838 91.8624 29.9635 91.5383 30.0471C91.2246 30.1308 90.8847 30.1726 90.5188 30.1726ZM88.4641 25.577H91.852C91.852 25.2842 91.8154 25.028 91.7422 24.8084C91.669 24.5888 91.5592 24.4006 91.4128 24.2438C91.2769 24.0869 91.1095 23.9719 90.9109 23.8987C90.7122 23.815 90.4926 23.7732 90.2521 23.7732C90.0221 23.7732 89.8077 23.8098 89.609 23.883C89.4208 23.9562 89.2483 24.066 89.0914 24.2124C88.9346 24.3588 88.7987 24.547 88.6836 24.777C88.5791 24.9966 88.5059 25.2633 88.4641 25.577Z" fill="#99E1FF"/>
<path d="M94.7223 29.3727V27.8669L99.8512 24.9653L94.738 22.4086V20.95L101.467 24.5104V25.4044L94.7223 29.3727Z" fill="#99E1FF"/>
<path d="M105.027 30.0001V21.546H102.361V20.2128H109.34V21.546H106.549V30.0001H105.027Z" fill="white"/>
<path d="M110.752 19.507H112.446V19.6481C112.383 19.7109 112.342 19.7788 112.321 19.852C112.31 19.9252 112.305 20.0507 112.305 20.2285V23.8046C112.483 23.5432 112.692 23.3236 112.932 23.1458C113.183 22.9576 113.439 22.8164 113.701 22.7223C113.973 22.6178 114.245 22.5655 114.516 22.5655C114.977 22.5655 115.374 22.6701 115.709 22.8792C116.054 23.0883 116.32 23.4177 116.508 23.8673C116.697 24.3065 116.791 24.8921 116.791 25.624V30.0001H115.254V25.6397C115.254 25.1901 115.207 24.8346 115.112 24.5731C115.018 24.3013 114.888 24.1078 114.72 23.9928C114.553 23.8673 114.354 23.8046 114.124 23.8046C113.936 23.8046 113.753 23.836 113.575 23.8987C113.408 23.9614 113.246 24.0503 113.089 24.1653C112.932 24.2699 112.796 24.4058 112.681 24.5731C112.566 24.7404 112.472 24.9287 112.399 25.1378C112.336 25.3469 112.305 25.577 112.305 25.8279V30.0001H110.752V19.507Z" fill="white"/>
<path d="M121.888 30.1726C121.365 30.1726 120.884 30.089 120.445 29.9216C120.006 29.7543 119.624 29.5138 119.3 29.2001C118.987 28.876 118.741 28.4786 118.563 28.0081C118.385 27.5376 118.297 27.0043 118.297 26.4083C118.297 25.8018 118.385 25.2633 118.563 24.7927C118.741 24.3117 118.981 23.9091 119.285 23.585C119.598 23.2608 119.959 23.0099 120.367 22.8321C120.785 22.6544 121.23 22.5655 121.7 22.5655C122.108 22.5655 122.495 22.6387 122.861 22.7851C123.237 22.9315 123.561 23.1511 123.833 23.4438C124.116 23.7262 124.335 24.0869 124.492 24.5261C124.659 24.9653 124.743 25.4776 124.743 26.0632C124.743 26.1678 124.743 26.288 124.743 26.4239C124.743 26.5494 124.738 26.6592 124.727 26.7533H119.802C119.823 27.1298 119.896 27.4591 120.022 27.7415C120.147 28.0133 120.304 28.2381 120.492 28.4159C120.691 28.5937 120.916 28.7244 121.167 28.808C121.418 28.8917 121.679 28.9335 121.951 28.9335C122.192 28.9335 122.411 28.9126 122.61 28.8708C122.819 28.8185 123.018 28.7401 123.206 28.6355C123.394 28.5309 123.567 28.3898 123.723 28.212L124.539 29.0119C124.319 29.2733 124.074 29.4929 123.802 29.6707C123.53 29.838 123.232 29.9635 122.908 30.0471C122.594 30.1308 122.254 30.1726 121.888 30.1726ZM119.834 25.577H123.222C123.222 25.2842 123.185 25.028 123.112 24.8084C123.039 24.5888 122.929 24.4006 122.782 24.2438C122.646 24.0869 122.479 23.9719 122.28 23.8987C122.082 23.815 121.862 23.7732 121.622 23.7732C121.392 23.7732 121.177 23.8098 120.979 23.883C120.79 23.9562 120.618 24.066 120.461 24.2124C120.304 24.3588 120.168 24.547 120.053 24.777C119.949 24.9966 119.875 25.2633 119.834 25.577Z" fill="white"/>
<path d="M134.264 30.0001V22.738H135.832V23.8516C136.01 23.5902 136.209 23.3654 136.428 23.1772C136.648 22.989 136.893 22.8426 137.165 22.738C137.437 22.623 137.73 22.5655 138.044 22.5655C138.451 22.5655 138.828 22.6701 139.173 22.8792C139.518 23.0883 139.795 23.4177 140.004 23.8673C140.213 24.3065 140.318 24.8921 140.318 25.624V30.0001H138.765V25.6397C138.765 25.211 138.718 24.8607 138.624 24.5888C138.53 24.317 138.394 24.1183 138.216 23.9928C138.049 23.8673 137.845 23.8046 137.604 23.8046C137.395 23.8046 137.186 23.8516 136.977 23.9457C136.768 24.0399 136.575 24.1706 136.397 24.3379C136.229 24.4947 136.094 24.6934 135.989 24.9339C135.884 25.1639 135.832 25.4253 135.832 25.7181V30.0001H134.264Z" fill="white"/>
<path d="M145.415 30.1726C144.893 30.1726 144.412 30.089 143.972 29.9216C143.533 29.7543 143.152 29.5138 142.827 29.2001C142.514 28.876 142.268 28.4786 142.09 28.0081C141.913 27.5376 141.824 27.0043 141.824 26.4083C141.824 25.8018 141.913 25.2633 142.09 24.7927C142.268 24.3117 142.509 23.9091 142.812 23.585C143.126 23.2608 143.486 23.0099 143.894 22.8321C144.312 22.6544 144.757 22.5655 145.227 22.5655C145.635 22.5655 146.022 22.6387 146.388 22.7851C146.764 22.9315 147.089 23.1511 147.36 23.4438C147.643 23.7262 147.862 24.0869 148.019 24.5261C148.186 24.9653 148.27 25.4776 148.27 26.0632C148.27 26.1678 148.27 26.288 148.27 26.4239C148.27 26.5494 148.265 26.6592 148.254 26.7533H143.329C143.35 27.1298 143.424 27.4591 143.549 27.7415C143.674 28.0133 143.831 28.2381 144.02 28.4159C144.218 28.5937 144.443 28.7244 144.694 28.808C144.945 28.8917 145.206 28.9335 145.478 28.9335C145.719 28.9335 145.938 28.9126 146.137 28.8708C146.346 28.8185 146.545 28.7401 146.733 28.6355C146.921 28.5309 147.094 28.3898 147.251 28.212L148.066 29.0119C147.847 29.2733 147.601 29.4929 147.329 29.6707C147.057 29.838 146.759 29.9635 146.435 30.0471C146.121 30.1308 145.781 30.1726 145.415 30.1726ZM143.361 25.577H146.749C146.749 25.2842 146.712 25.028 146.639 24.8084C146.566 24.5888 146.456 24.4006 146.31 24.2438C146.174 24.0869 146.006 23.9719 145.808 23.8987C145.609 23.815 145.389 23.7732 145.149 23.7732C144.919 23.7732 144.704 23.8098 144.506 23.883C144.318 23.9562 144.145 24.066 143.988 24.2124C143.831 24.3588 143.695 24.547 143.58 24.777C143.476 24.9966 143.403 25.2633 143.361 25.577Z" fill="white"/>
<path d="M150.56 30.0158L149.196 22.738H150.529L151.47 27.9924L152.583 23.5066H153.43L154.748 27.9611C154.853 27.1873 154.941 26.5442 155.015 26.0318C155.088 25.509 155.14 25.0751 155.171 24.73C155.203 24.3745 155.224 24.0765 155.234 23.836C155.245 23.585 155.25 23.3393 155.25 23.0988V22.738H156.614C156.541 23.5223 156.447 24.3274 156.332 25.1535C156.217 25.9795 156.086 26.8056 155.94 27.6317C155.794 28.4473 155.642 29.242 155.485 30.0158H154.105L152.991 25.8279L151.94 30.0158H150.56Z" fill="white"/>
<path d="M160.881 30.1726C160.442 30.1726 160.028 30.1308 159.642 30.0471C159.255 29.9635 158.889 29.838 158.544 29.6707C158.209 29.5034 157.901 29.289 157.618 29.0276L158.34 27.7101L158.434 27.5689L158.544 27.6317C158.565 27.7153 158.591 27.8042 158.622 27.8983C158.653 27.982 158.727 28.0865 158.842 28.212C159.093 28.4316 159.38 28.6094 159.704 28.7453C160.028 28.8708 160.426 28.9335 160.896 28.9335C161.221 28.9335 161.492 28.8969 161.712 28.8237C161.942 28.7401 162.12 28.6303 162.245 28.4943C162.371 28.3479 162.433 28.1859 162.433 28.0081C162.433 27.8722 162.397 27.7572 162.324 27.663C162.261 27.5585 162.162 27.4644 162.026 27.3807C161.89 27.2866 161.712 27.1977 161.492 27.1141C161.273 27.02 161.006 26.9311 160.692 26.8474C160.159 26.6906 159.694 26.5128 159.297 26.3141C158.899 26.105 158.591 25.8593 158.371 25.577C158.152 25.2946 158.042 24.96 158.042 24.5731C158.042 24.1862 158.152 23.8464 158.371 23.5536C158.601 23.2504 158.925 23.0099 159.344 22.8321C159.762 22.6544 160.259 22.5655 160.834 22.5655C161.147 22.5655 161.44 22.5916 161.712 22.6439C161.994 22.6857 162.25 22.7537 162.481 22.8478C162.721 22.9419 162.946 23.0622 163.155 23.2086C163.364 23.3445 163.563 23.5066 163.751 23.6948L162.857 24.8868L162.747 24.7927C162.737 24.7091 162.711 24.6307 162.669 24.5575C162.637 24.4843 162.564 24.3901 162.449 24.2751C162.219 24.1078 161.968 23.9823 161.696 23.8987C161.424 23.815 161.147 23.7732 160.865 23.7732C160.499 23.7732 160.175 23.836 159.893 23.9614C159.621 24.0869 159.485 24.2751 159.485 24.5261C159.485 24.6725 159.542 24.8084 159.657 24.9339C159.783 25.0594 159.981 25.1848 160.253 25.3103C160.525 25.4253 160.896 25.5456 161.367 25.6711C161.963 25.8279 162.444 26.0109 162.81 26.22C163.176 26.4187 163.443 26.654 163.61 26.9259C163.788 27.1977 163.876 27.5166 163.876 27.8826C163.876 28.2904 163.761 28.6721 163.531 29.0276C163.312 29.3727 162.977 29.6498 162.528 29.8589C162.078 30.068 161.529 30.1726 160.881 30.1726Z" fill="white"/>
<path d="M171.97 29.3727L165.225 25.4044V24.5104L171.923 20.95V22.4086L166.825 24.9653L171.97 27.8199V29.3727Z" fill="#99E1FF"/>
<path d="M174.746 30.6745L173.35 30.0471L178.197 19.554L179.577 20.2598L174.746 30.6745Z" fill="#99E1FF"/>
<path d="M185.067 30.1412C184.638 30.1412 184.267 30.0733 183.953 29.9373C183.65 29.7909 183.404 29.5609 183.216 29.2472C183.038 28.9335 182.913 28.5257 182.839 28.0238C182.766 27.5219 182.74 26.9102 182.761 26.1887L182.965 20.9813L184.565 20.7774L184.722 20.7617L184.737 20.9029C184.685 20.9761 184.638 21.0493 184.596 21.1225C184.565 21.1957 184.539 21.3212 184.518 21.4989L184.361 23.5223L184.424 23.6948L184.314 26.1887C184.282 26.8997 184.303 27.4539 184.376 27.8513C184.45 28.2382 184.575 28.51 184.753 28.6669C184.931 28.8133 185.145 28.8865 185.396 28.8865C185.731 28.8865 186.029 28.8185 186.29 28.6826C186.562 28.5466 186.829 28.3793 187.09 28.1806L187.435 29.3413C187.08 29.6027 186.708 29.8014 186.321 29.9373C185.935 30.0733 185.516 30.1412 185.067 30.1412ZM181.349 22.738H186.823L186.808 23.9928H181.349V22.738Z" fill="#99E1FF"/>
<path d="M189.631 30.0001V28.761H191.435V23.9771H189.709V22.738H193.003V28.761H194.65V30.0001H189.631ZM192.125 21.4362C191.842 21.4362 191.602 21.3421 191.403 21.1539C191.215 20.9552 191.121 20.7251 191.121 20.4637C191.121 20.1814 191.215 19.9461 191.403 19.7579C191.591 19.5697 191.832 19.4756 192.125 19.4756C192.397 19.4756 192.632 19.5749 192.831 19.7736C193.04 19.9723 193.144 20.2023 193.144 20.4637C193.144 20.7251 193.04 20.9552 192.831 21.1539C192.632 21.3421 192.397 21.4362 192.125 21.4362Z" fill="#99E1FF"/>
<path d="M200.751 30.1412C200.323 30.1412 199.951 30.0733 199.638 29.9373C199.335 29.7909 199.089 29.5609 198.901 29.2472C198.723 28.9335 198.597 28.5257 198.524 28.0238C198.451 27.5219 198.425 26.9102 198.446 26.1887L198.65 20.9813L200.249 20.7774L200.406 20.7617L200.422 20.9029C200.37 20.9761 200.323 21.0493 200.281 21.1225C200.249 21.1957 200.223 21.3212 200.202 21.4989L200.046 23.5223L200.108 23.6948L199.999 26.1887C199.967 26.8997 199.988 27.4539 200.061 27.8513C200.134 28.2382 200.26 28.51 200.438 28.6669C200.615 28.8133 200.83 28.8865 201.081 28.8865C201.415 28.8865 201.713 28.8185 201.975 28.6826C202.247 28.5466 202.513 28.3793 202.775 28.1806L203.12 29.3413C202.764 29.6027 202.393 29.8014 202.006 29.9373C201.619 30.0733 201.201 30.1412 200.751 30.1412ZM197.034 22.738H202.508L202.492 23.9928H197.034V22.738Z" fill="#99E1FF"/>
<path d="M204.971 30.0001V28.761H207.041V20.7461H205.065V19.507H208.625V28.761H210.68V30.0001H204.971Z" fill="#99E1FF"/>
<path d="M215.997 30.1726C215.474 30.1726 214.993 30.089 214.554 29.9216C214.115 29.7543 213.733 29.5138 213.409 29.2001C213.095 28.876 212.85 28.4786 212.672 28.0081C212.494 27.5376 212.405 27.0043 212.405 26.4083C212.405 25.8018 212.494 25.2633 212.672 24.7927C212.85 24.3117 213.09 23.9091 213.393 23.585C213.707 23.2608 214.068 23.0099 214.476 22.8321C214.894 22.6544 215.338 22.5655 215.809 22.5655C216.217 22.5655 216.603 22.6387 216.969 22.7851C217.346 22.9315 217.67 23.1511 217.942 23.4438C218.224 23.7262 218.444 24.0869 218.601 24.5261C218.768 24.9653 218.852 25.4776 218.852 26.0632C218.852 26.1678 218.852 26.288 218.852 26.4239C218.852 26.5494 218.846 26.6592 218.836 26.7533H213.911C213.932 27.1298 214.005 27.4591 214.131 27.7415C214.256 28.0133 214.413 28.2381 214.601 28.4159C214.8 28.5937 215.025 28.7244 215.275 28.808C215.526 28.8917 215.788 28.9335 216.06 28.9335C216.3 28.9335 216.52 28.9126 216.719 28.8708C216.928 28.8185 217.126 28.7401 217.315 28.6355C217.503 28.5309 217.675 28.3898 217.832 28.212L218.648 29.0119C218.428 29.2733 218.182 29.4929 217.911 29.6707C217.639 29.838 217.341 29.9635 217.017 30.0471C216.703 30.1308 216.363 30.1726 215.997 30.1726ZM213.942 25.577H217.33C217.33 25.2842 217.294 25.028 217.22 24.8084C217.147 24.5888 217.037 24.4006 216.891 24.2438C216.755 24.0869 216.588 23.9719 216.389 23.8987C216.19 23.815 215.971 23.7732 215.73 23.7732C215.5 23.7732 215.286 23.8098 215.087 23.883C214.899 23.9562 214.727 24.066 214.57 24.2124C214.413 24.3588 214.277 24.547 214.162 24.777C214.057 24.9966 213.984 25.2633 213.942 25.577Z" fill="#99E1FF"/>
<path d="M220.201 29.3727V27.8669L225.329 24.9653L220.216 22.4086V20.95L226.945 24.5104V25.4044L220.201 29.3727Z" fill="#99E1FF"/>
<path d="M234.709 29.3727L227.964 25.4044V24.5104L234.662 20.95V22.4086L229.564 24.9653L234.709 27.8199V29.3727Z" fill="#99E1FF"/>
<path d="M237.485 30.6745L236.089 30.0471L240.936 19.554L242.316 20.2598L237.485 30.6745Z" fill="#99E1FF"/>
<path d="M244.073 19.507H245.767V19.6481C245.704 19.7109 245.662 19.7788 245.641 19.852C245.631 19.9252 245.626 20.0507 245.626 20.2285V23.8046C245.803 23.5432 246.012 23.3236 246.253 23.1458C246.504 22.9576 246.76 22.8164 247.021 22.7223C247.293 22.6178 247.565 22.5655 247.837 22.5655C248.297 22.5655 248.695 22.6701 249.029 22.8792C249.374 23.0883 249.641 23.4177 249.829 23.8673C250.017 24.3065 250.111 24.8921 250.111 25.624V30.0001H248.574V25.6397C248.574 25.1901 248.527 24.8346 248.433 24.5731C248.339 24.3013 248.208 24.1078 248.041 23.9928C247.874 23.8673 247.675 23.8046 247.445 23.8046C247.257 23.8046 247.074 23.836 246.896 23.8987C246.729 23.9614 246.567 24.0503 246.41 24.1653C246.253 24.2699 246.117 24.4058 246.002 24.5731C245.887 24.7404 245.793 24.9287 245.72 25.1378C245.657 25.3469 245.626 25.577 245.626 25.8279V30.0001H244.073V19.507Z" fill="#99E1FF"/>
<path d="M255.209 30.1726C254.686 30.1726 254.205 30.089 253.766 29.9216C253.327 29.7543 252.945 29.5138 252.621 29.2001C252.307 28.876 252.062 28.4786 251.884 28.0081C251.706 27.5376 251.617 27.0043 251.617 26.4083C251.617 25.8018 251.706 25.2633 251.884 24.7927C252.062 24.3117 252.302 23.9091 252.605 23.585C252.919 23.2608 253.28 23.0099 253.688 22.8321C254.106 22.6544 254.55 22.5655 255.021 22.5655C255.429 22.5655 255.815 22.6387 256.181 22.7851C256.558 22.9315 256.882 23.1511 257.154 23.4438C257.436 23.7262 257.656 24.0869 257.813 24.5261C257.98 24.9653 258.064 25.4776 258.064 26.0632C258.064 26.1678 258.064 26.288 258.064 26.4239C258.064 26.5494 258.058 26.6592 258.048 26.7533H253.123C253.144 27.1298 253.217 27.4591 253.342 27.7415C253.468 28.0133 253.625 28.2381 253.813 28.4159C254.012 28.5937 254.237 28.7244 254.487 28.808C254.738 28.8917 255 28.9335 255.272 28.9335C255.512 28.9335 255.732 28.9126 255.93 28.8708C256.14 28.8185 256.338 28.7401 256.526 28.6355C256.715 28.5309 256.887 28.3898 257.044 28.212L257.86 29.0119C257.64 29.2733 257.394 29.4929 257.122 29.6707C256.851 29.838 256.553 29.9635 256.228 30.0471C255.915 30.1308 255.575 30.1726 255.209 30.1726ZM253.154 25.577H256.542C256.542 25.2842 256.506 25.028 256.432 24.8084C256.359 24.5888 256.249 24.4006 256.103 24.2438C255.967 24.0869 255.8 23.9719 255.601 23.8987C255.402 23.815 255.183 23.7732 254.942 23.7732C254.712 23.7732 254.498 23.8098 254.299 23.883C254.111 23.9562 253.938 24.066 253.782 24.2124C253.625 24.3588 253.489 24.547 253.374 24.777C253.269 24.9966 253.196 25.2633 253.154 25.577Z" fill="#99E1FF"/>
<path d="M261.969 30.1726C261.164 30.1726 260.537 29.9896 260.087 29.6236C259.648 29.2472 259.428 28.761 259.428 28.165C259.428 27.7676 259.517 27.4121 259.695 27.0984C259.883 26.7742 260.144 26.4971 260.479 26.2671C260.824 26.0371 261.237 25.8593 261.718 25.7338C262.199 25.5979 262.743 25.5299 263.349 25.5299C263.475 25.5299 263.606 25.5351 263.741 25.5456C263.888 25.5456 264.039 25.5508 264.196 25.5613C264.364 25.5717 264.531 25.5822 264.698 25.5926L264.745 26.7063C264.599 26.6854 264.442 26.6697 264.275 26.6592C264.118 26.6488 263.961 26.6435 263.804 26.6435C263.647 26.6435 263.501 26.6435 263.365 26.6435C262.957 26.6435 262.602 26.6749 262.298 26.7376C262.006 26.7899 261.76 26.8736 261.561 26.9886C261.373 27.1036 261.232 27.2448 261.138 27.4121C261.044 27.5794 260.997 27.7728 260.997 27.9924C260.997 28.1702 261.028 28.327 261.091 28.463C261.153 28.5884 261.237 28.6878 261.342 28.761C261.457 28.8342 261.587 28.8917 261.734 28.9335C261.891 28.9649 262.058 28.9806 262.236 28.9806C262.581 28.9806 262.884 28.9231 263.145 28.808C263.407 28.693 263.626 28.5257 263.804 28.3061C263.992 28.0761 264.134 27.7937 264.228 27.4591C264.322 27.1141 264.369 26.7115 264.369 26.2514C264.369 25.6136 264.296 25.1169 264.149 24.7614C264.013 24.4058 263.809 24.1601 263.538 24.0242C263.266 23.8882 262.926 23.8203 262.518 23.8203C262.183 23.8203 261.859 23.8778 261.546 23.9928C261.242 24.0974 260.944 24.296 260.652 24.5888L259.82 23.6477C260.218 23.2713 260.652 22.9994 261.122 22.8321C261.603 22.6648 262.095 22.5812 262.596 22.5812C263.057 22.5812 263.48 22.6387 263.867 22.7537C264.264 22.8583 264.609 23.036 264.902 23.287C265.205 23.5379 265.435 23.8778 265.592 24.3065C265.76 24.7352 265.843 25.279 265.843 25.9377V30.0001H264.212V29.106C264.076 29.3152 263.924 29.4929 263.757 29.6393C263.59 29.7753 263.407 29.8851 263.208 29.9687C263.02 30.0419 262.821 30.0942 262.612 30.1256C262.403 30.1569 262.189 30.1726 261.969 30.1726Z" fill="#99E1FF"/>
<path d="M270.219 30.1726C269.832 30.1726 269.456 30.0942 269.09 29.9373C268.734 29.77 268.416 29.5295 268.133 29.2158C267.851 28.9021 267.626 28.5048 267.459 28.0238C267.302 27.5323 267.224 26.9677 267.224 26.3298C267.224 25.6815 267.302 25.1221 267.459 24.6516C267.626 24.181 267.851 23.7941 268.133 23.4909C268.416 23.1772 268.74 22.9471 269.106 22.8008C269.472 22.6439 269.853 22.5655 270.251 22.5655C270.533 22.5655 270.789 22.6021 271.019 22.6753C271.26 22.7485 271.474 22.8583 271.662 23.0047C271.851 23.1511 272.002 23.334 272.117 23.5536V19.507H273.78V19.6481C273.727 19.7109 273.691 19.7788 273.67 19.852C273.649 19.9252 273.644 20.0507 273.654 20.2285V28.9806C273.654 29.1479 273.659 29.3204 273.67 29.4982C273.691 29.6655 273.738 29.8328 273.811 30.0001H272.274C272.222 29.8851 272.185 29.7805 272.164 29.6864C272.143 29.5923 272.133 29.4982 272.133 29.4041C272.133 29.3099 272.133 29.2106 272.133 29.106C271.986 29.3256 271.819 29.5191 271.631 29.6864C271.443 29.8432 271.228 29.9635 270.988 30.0471C270.747 30.1308 270.491 30.1726 270.219 30.1726ZM270.486 28.8865C270.768 28.8865 271.009 28.8289 271.207 28.7139C271.406 28.5989 271.568 28.4316 271.694 28.212C271.819 27.9924 271.913 27.7258 271.976 27.4121C272.039 27.0984 272.07 26.7429 272.07 26.3455C272.07 25.8122 272.013 25.3574 271.898 24.9809C271.783 24.5941 271.6 24.3013 271.349 24.1026C271.108 23.8935 270.8 23.7889 270.423 23.7889C270.151 23.7889 269.911 23.8464 269.702 23.9614C269.493 24.0765 269.315 24.2438 269.168 24.4633C269.032 24.6725 268.928 24.9287 268.855 25.2319C268.782 25.5351 268.745 25.875 268.745 26.2514C268.745 26.7847 268.818 27.25 268.965 27.6474C269.121 28.0447 269.331 28.3532 269.592 28.5728C269.853 28.7819 270.151 28.8865 270.486 28.8865Z" fill="#99E1FF"/>
<path d="M275.097 29.3727V27.8669L280.226 24.9653L275.113 22.4086V20.95L281.842 24.5104V25.4044L275.097 29.3727Z" fill="#99E1FF"/>
<path d="M7.27961 48.3727L0.535156 44.4044V43.5104L7.23256 39.95V41.4086L2.135 43.9653L7.27961 46.8199V48.3727Z" fill="#99E1FF"/>
<path d="M12.1419 49.1726C11.8805 49.1726 11.6243 49.1308 11.3733 49.0471C11.1328 48.9739 10.9028 48.8641 10.6832 48.7177C10.4741 48.5609 10.2859 48.3727 10.1186 48.1531L9.78918 49.0001H8.65987V38.507H10.3695V38.6481C10.3172 38.7109 10.2806 38.7788 10.2597 38.852C10.2493 38.9252 10.244 39.0507 10.244 39.2285V42.6634C10.3486 42.4961 10.4741 42.3497 10.6205 42.2242C10.7669 42.0883 10.9237 41.9733 11.091 41.8792C11.2688 41.7746 11.4518 41.6962 11.64 41.6439C11.8387 41.5916 12.0321 41.5655 12.2203 41.5655C12.6595 41.5759 13.0568 41.6596 13.4124 41.8164C13.7783 41.9628 14.092 42.1929 14.3534 42.5066C14.6149 42.8098 14.8135 43.1915 14.9495 43.6516C15.0959 44.1116 15.1691 44.6502 15.1691 45.2671C15.1691 45.9259 15.0854 46.501 14.9181 46.9924C14.7613 47.4839 14.5417 47.8917 14.2593 48.2158C13.977 48.54 13.6529 48.7805 13.2869 48.9373C12.9209 49.0942 12.5392 49.1726 12.1419 49.1726ZM11.8753 47.9178C12.1053 47.9178 12.3197 47.876 12.5183 47.7923C12.7275 47.7087 12.9104 47.5675 13.0673 47.3689C13.2346 47.1702 13.3653 46.9088 13.4594 46.5846C13.5535 46.2605 13.6006 45.8683 13.6006 45.4083C13.6006 44.9795 13.5588 44.6031 13.4751 44.279C13.4019 43.9548 13.2921 43.6829 13.1457 43.4633C12.9993 43.2333 12.8163 43.066 12.5968 42.9614C12.3876 42.8464 12.1576 42.7889 11.9066 42.7889C11.5616 42.7889 11.2635 42.8935 11.0126 43.1026C10.7721 43.3117 10.5839 43.6097 10.4479 43.9966C10.312 44.3731 10.244 44.8227 10.244 45.3455C10.244 45.7533 10.2754 46.1193 10.3381 46.4435C10.4009 46.7572 10.495 47.0238 10.6205 47.2434C10.7564 47.463 10.9237 47.6303 11.1224 47.7453C11.3315 47.8603 11.5825 47.9178 11.8753 47.9178Z" fill="#99E1FF"/>
<path d="M19.6079 49.1569C18.9491 49.1569 18.3635 49.0001 17.8512 48.6864C17.3388 48.3622 16.931 47.9178 16.6277 47.3532C16.3245 46.7781 16.1729 46.1193 16.1729 45.3769C16.1729 44.6449 16.3245 43.9966 16.6277 43.432C16.931 42.8569 17.3388 42.4072 17.8512 42.0831C18.3635 41.7485 18.9491 41.5812 19.6079 41.5812C20.2562 41.5812 20.8365 41.7485 21.3489 42.0831C21.8717 42.4072 22.2847 42.8569 22.588 43.432C22.8912 43.9966 23.0428 44.6449 23.0428 45.3769C23.0428 46.1088 22.8912 46.7624 22.588 47.3375C22.2847 47.9021 21.8717 48.3465 21.3489 48.6707C20.8365 48.9948 20.2562 49.1569 19.6079 49.1569ZM19.6079 47.8865C19.9634 47.8865 20.2771 47.7819 20.5489 47.5728C20.8313 47.3532 21.0509 47.0552 21.2077 46.6787C21.3645 46.3023 21.443 45.8631 21.443 45.3612C21.443 44.8488 21.3645 44.4044 21.2077 44.028C21.0509 43.6516 20.8313 43.3588 20.5489 43.1497C20.2771 42.9405 19.9634 42.836 19.6079 42.836C19.2523 42.836 18.9334 42.9405 18.6511 43.1497C18.3792 43.3588 18.1649 43.6516 18.008 44.028C17.8512 44.4044 17.7727 44.8488 17.7727 45.3612C17.7727 45.8631 17.8512 46.3023 18.008 46.6787C18.1649 47.0552 18.3792 47.3532 18.6511 47.5728C18.9334 47.7819 19.2523 47.8865 19.6079 47.8865Z" fill="#99E1FF"/>
<path d="M27.1052 49.1726C26.7183 49.1726 26.3419 49.0942 25.9759 48.9373C25.6204 48.77 25.3014 48.5295 25.0191 48.2158C24.7368 47.9021 24.512 47.5048 24.3447 47.0238C24.1878 46.5323 24.1094 45.9677 24.1094 45.3298C24.1094 44.6815 24.1878 44.1221 24.3447 43.6516C24.512 43.181 24.7368 42.7941 25.0191 42.4909C25.3014 42.1772 25.6256 41.9471 25.9916 41.8008C26.3575 41.6439 26.7392 41.5655 27.1365 41.5655C27.4189 41.5655 27.6751 41.6021 27.9051 41.6753C28.1456 41.7485 28.36 41.8583 28.5482 42.0047C28.7364 42.1511 28.888 42.334 29.003 42.5536V38.507H30.6656V38.6481C30.6133 38.7109 30.5767 38.7788 30.5558 38.852C30.5349 38.9252 30.5297 39.0507 30.5401 39.2285V47.9806C30.5401 48.1479 30.5454 48.3204 30.5558 48.4982C30.5767 48.6655 30.6238 48.8328 30.697 49.0001H29.1599C29.1076 48.8851 29.071 48.7805 29.0501 48.6864C29.0292 48.5923 29.0187 48.4982 29.0187 48.4041C29.0187 48.3099 29.0187 48.2106 29.0187 48.106C28.8723 48.3256 28.705 48.5191 28.5168 48.6864C28.3286 48.8432 28.1142 48.9635 27.8737 49.0471C27.6332 49.1308 27.377 49.1726 27.1052 49.1726ZM27.3718 47.8865C27.6541 47.8865 27.8946 47.8289 28.0933 47.7139C28.292 47.5989 28.4541 47.4316 28.5795 47.212C28.705 46.9924 28.7991 46.7258 28.8619 46.4121C28.9246 46.0984 28.956 45.7429 28.956 45.3455C28.956 44.8122 28.8985 44.3574 28.7834 43.9809C28.6684 43.5941 28.4854 43.3013 28.2345 43.1026C27.994 42.8935 27.6855 42.7889 27.3091 42.7889C27.0372 42.7889 26.7967 42.8464 26.5876 42.9614C26.3784 43.0765 26.2007 43.2438 26.0543 43.4633C25.9184 43.6725 25.8138 43.9287 25.7406 44.2319C25.6674 44.5351 25.6308 44.875 25.6308 45.2514C25.6308 45.7847 25.704 46.25 25.8504 46.6474C26.0072 47.0447 26.2164 47.3532 26.4778 47.5728C26.7392 47.7819 27.0372 47.8865 27.3718 47.8865Z" fill="#99E1FF"/>
<path d="M33.3477 51.7449C33.0027 51.7449 32.6942 51.6874 32.4223 51.5724C32.1504 51.4678 31.889 51.3057 31.6381 51.0862L32.2184 50.0196L32.2968 49.8941L32.4066 49.9568C32.438 50.03 32.4746 50.098 32.5164 50.1607C32.5687 50.2339 32.668 50.3228 32.8144 50.4274C32.8981 50.4588 32.987 50.4797 33.0811 50.4901C33.1752 50.511 33.2693 50.5215 33.3634 50.5215C33.6039 50.5215 33.8078 50.4588 33.9751 50.3333C34.1424 50.2183 34.2888 50.0353 34.4143 49.7843C34.5502 49.5334 34.6862 49.2092 34.8221 48.8119L36.3278 44.4201C36.4847 43.96 36.6206 43.5156 36.7356 43.0869C36.8611 42.6477 36.9395 42.1981 36.9709 41.738H38.4453C38.4034 42.219 38.2937 42.7157 38.1159 43.2281C37.9486 43.7404 37.7761 44.2371 37.5983 44.7181L35.7945 49.6902C35.5227 50.4535 35.1828 50.9868 34.775 51.2901C34.3672 51.5933 33.8915 51.7449 33.3477 51.7449ZM31.9361 41.738H33.5203L35.7161 47.4473L34.9319 49.1726L31.9361 41.738Z" fill="#99E1FF"/>
<path d="M39.8255 48.3727V46.8669L44.9545 43.9653L39.8412 41.4086V39.95L46.57 43.5104V44.4044L39.8255 48.3727Z" fill="#99E1FF"/>
<path d="M22.9644 67.3727L16.2199 63.4044V62.5104L22.9173 58.95V60.4086L17.8198 62.9653L22.9644 65.8199V67.3727Z" fill="#99E1FF"/>
<path d="M24.4858 57.507H26.1798V57.6481C26.117 57.7109 26.0752 57.7788 26.0543 57.852C26.0438 57.9252 26.0386 58.0507 26.0386 58.2285V61.8046C26.2164 61.5432 26.4255 61.3236 26.666 61.1458C26.917 60.9576 27.1731 60.8164 27.4346 60.7223C27.7064 60.6178 27.9783 60.5655 28.2502 60.5655C28.7103 60.5655 29.1076 60.6701 29.4422 60.8792C29.7873 61.0883 30.0539 61.4177 30.2421 61.8673C30.4303 62.3065 30.5245 62.8921 30.5245 63.624V68.0001H28.9874V63.6397C28.9874 63.1901 28.9403 62.8346 28.8462 62.5731C28.7521 62.3013 28.6214 62.1078 28.4541 61.9928C28.2868 61.8673 28.0881 61.8046 27.858 61.8046C27.6698 61.8046 27.4868 61.836 27.3091 61.8987C27.1418 61.9614 26.9797 62.0503 26.8228 62.1653C26.666 62.2699 26.5301 62.4058 26.415 62.5731C26.3 62.7404 26.2059 62.9287 26.1327 63.1378C26.07 63.3469 26.0386 63.577 26.0386 63.8279V68.0001H24.4858V57.507Z" fill="#99E1FF"/>
<path d="M34.7437 68.0001V59.9538L32.9085 60.5655L32.5635 59.593L35.1672 58.2128H36.2965V68.0001H34.7437Z" fill="#99E1FF"/>
<path d="M39.8255 67.3727V65.8669L44.9545 62.9653L39.8412 60.4086V58.95L46.57 62.5104V63.4044L39.8255 67.3727Z" fill="#99E1FF"/>
<path d="M47.6052 68.0001V58.2285H48.9227L50.9931 62.8084L53.0949 58.2128H54.3967V68.0001H53.0321V60.989L51.3068 64.7063H50.5853L48.9541 61.0203V68.0001H47.6052Z" fill="white"/>
<path d="M58.0669 68.1726C57.2618 68.1726 56.6344 67.9896 56.1848 67.6236C55.7456 67.2472 55.526 66.761 55.526 66.165C55.526 65.7676 55.6149 65.4121 55.7926 65.0984C55.9809 64.7742 56.2423 64.4971 56.5769 64.2671C56.9219 64.0371 57.335 63.8593 57.816 63.7338C58.297 63.5979 58.8407 63.5299 59.4472 63.5299C59.5727 63.5299 59.7034 63.5351 59.8393 63.5456C59.9857 63.5456 60.1373 63.5508 60.2942 63.5613C60.4615 63.5717 60.6288 63.5822 60.7961 63.5927L60.8431 64.7063C60.6968 64.6854 60.5399 64.6697 60.3726 64.6592C60.2158 64.6488 60.0589 64.6435 59.9021 64.6435C59.7452 64.6435 59.5988 64.6435 59.4629 64.6435C59.0551 64.6435 58.6996 64.6749 58.3963 64.7376C58.1035 64.7899 57.8578 64.8736 57.6591 64.9886C57.4709 65.1036 57.3298 65.2448 57.2356 65.4121C57.1415 65.5794 57.0945 65.7728 57.0945 65.9924C57.0945 66.1702 57.1258 66.327 57.1886 66.463C57.2513 66.5884 57.335 66.6878 57.4395 66.761C57.5546 66.8342 57.6853 66.8917 57.8317 66.9335C57.9885 66.9649 58.1558 66.9806 58.3336 66.9806C58.6786 66.9806 58.9819 66.9231 59.2433 66.808C59.5047 66.693 59.7243 66.5257 59.9021 66.3061C60.0903 66.0761 60.2314 65.7937 60.3255 65.4591C60.4197 65.1141 60.4667 64.7115 60.4667 64.2514C60.4667 63.6136 60.3935 63.1169 60.2471 62.7614C60.1112 62.4058 59.9073 62.1601 59.6354 62.0242C59.3635 61.8882 59.0237 61.8203 58.6159 61.8203C58.2813 61.8203 57.9571 61.8778 57.6434 61.9928C57.3402 62.0974 57.0422 62.296 56.7494 62.5888L55.9181 61.6477C56.3155 61.2713 56.7494 60.9994 57.22 60.8321C57.701 60.6648 58.1924 60.5812 58.6943 60.5812C59.1544 60.5812 59.5779 60.6387 59.9648 60.7537C60.3621 60.8583 60.7072 61.036 61 61.287C61.3032 61.5379 61.5333 61.8778 61.6901 62.3065C61.8574 62.7352 61.9411 63.279 61.9411 63.9377V68.0001H60.3099V67.106C60.1739 67.3152 60.0223 67.4929 59.855 67.6393C59.6877 67.7753 59.5047 67.8851 59.306 67.9687C59.1178 68.0419 58.9191 68.0942 58.71 68.1255C58.5009 68.1569 58.2865 68.1726 58.0669 68.1726Z" fill="white"/>
<path d="M65.7525 70.7449C65.2715 70.7449 64.8271 70.6508 64.4193 70.4626C64.0115 70.2848 63.6559 70.0182 63.3527 69.6627L64.2154 68.5334L64.3095 68.4079L64.4193 68.4863C64.4402 68.57 64.4611 68.6536 64.482 68.7373C64.5134 68.8209 64.5813 68.9255 64.6859 69.051C64.8218 69.166 64.9735 69.2601 65.1408 69.3333C65.3185 69.4065 65.5172 69.4431 65.7368 69.4431C66.0296 69.4431 66.2753 69.3803 66.474 69.2549C66.6727 69.1398 66.819 68.9516 66.9132 68.6902C67.0177 68.4392 67.07 68.1151 67.07 67.7178V61.9928H64.482V60.738H68.6542V67.5923C68.6542 68.3347 68.5182 68.9359 68.2464 69.396C67.9745 69.8666 67.619 70.2064 67.1798 70.4155C66.7406 70.6351 66.2648 70.7449 65.7525 70.7449ZM67.7444 59.4362C67.4621 59.4362 67.2216 59.3421 67.0229 59.1539C66.8347 58.9552 66.7406 58.7251 66.7406 58.4637C66.7406 58.1814 66.8347 57.9461 67.0229 57.7579C67.2112 57.5697 67.4517 57.4756 67.7444 57.4756C68.0163 57.4756 68.2516 57.5749 68.4503 57.7736C68.6594 57.9723 68.764 58.2023 68.764 58.4637C68.764 58.7251 68.6594 58.9552 68.4503 59.1539C68.2516 59.3421 68.0163 59.4362 67.7444 59.4362Z" fill="white"/>
<path d="M74.5046 68.1569C73.8458 68.1569 73.2603 68.0001 72.7479 67.6864C72.2355 67.3622 71.8277 66.9178 71.5245 66.3532C71.2212 65.7781 71.0696 65.1193 71.0696 64.3769C71.0696 63.6449 71.2212 62.9966 71.5245 62.432C71.8277 61.8569 72.2355 61.4072 72.7479 61.0831C73.2603 60.7485 73.8458 60.5812 74.5046 60.5812C75.1529 60.5812 75.7332 60.7485 76.2456 61.0831C76.7684 61.4072 77.1815 61.8569 77.4847 62.432C77.7879 62.9966 77.9396 63.6449 77.9396 64.3769C77.9396 65.1088 77.7879 65.7624 77.4847 66.3375C77.1815 66.9021 76.7684 67.3465 76.2456 67.6707C75.7332 67.9948 75.1529 68.1569 74.5046 68.1569ZM74.5046 66.8865C74.8601 66.8865 75.1738 66.7819 75.4457 66.5728C75.728 66.3532 75.9476 66.0552 76.1044 65.6787C76.2613 65.3023 76.3397 64.8631 76.3397 64.3612C76.3397 63.8488 76.2613 63.4044 76.1044 63.028C75.9476 62.6516 75.728 62.3588 75.4457 62.1497C75.1738 61.9405 74.8601 61.836 74.5046 61.836C74.1491 61.836 73.8301 61.9405 73.5478 62.1497C73.276 62.3588 73.0616 62.6516 72.9047 63.028C72.7479 63.4044 72.6695 63.8488 72.6695 64.3612C72.6695 64.8631 72.7479 65.3023 72.9047 65.6787C73.0616 66.0552 73.276 66.3532 73.5478 66.5728C73.8301 66.7819 74.1491 66.8865 74.5046 66.8865Z" fill="white"/>
<path d="M79.9786 60.738H81.5941L81.5627 62.8084L81.3745 62.6359C81.4268 62.3222 81.5261 62.0399 81.6725 61.7889C81.8189 61.5275 81.9967 61.3079 82.2058 61.1301C82.4254 60.9524 82.6659 60.8164 82.9273 60.7223C83.1887 60.6178 83.4606 60.5655 83.7429 60.5655C84.1403 60.5655 84.501 60.6335 84.8252 60.7694C85.1493 60.9053 85.4421 61.1092 85.7035 61.3811L85.0448 62.6672L84.982 62.8084L84.8565 62.7457C84.8252 62.662 84.7938 62.5784 84.7624 62.4947C84.7311 62.4111 84.6526 62.3117 84.5272 62.1967C84.3703 62.0921 84.2135 62.0137 84.0566 61.9614C83.9102 61.9092 83.7377 61.883 83.539 61.883C83.2881 61.883 83.0423 61.9301 82.8018 62.0242C82.5718 62.1078 82.3627 62.2438 82.1744 62.432C81.9862 62.6202 81.8346 62.8607 81.7196 63.1535C81.615 63.4358 81.5627 63.7809 81.5627 64.1887V68.0158H79.9786V60.738Z" fill="white"/>
<path d="M97.6867 68.1726C97.2998 68.1726 96.9234 68.0942 96.5574 67.9373C96.2019 67.77 95.8829 67.5295 95.6006 67.2158C95.3183 66.9021 95.0935 66.5048 94.9262 66.0238C94.7693 65.5323 94.6909 64.9677 94.6909 64.3298C94.6909 63.6815 94.7693 63.1221 94.9262 62.6516C95.0935 62.181 95.3183 61.7941 95.6006 61.4909C95.8829 61.1772 96.2071 60.9471 96.5731 60.8008C96.9391 60.6439 97.3207 60.5655 97.7181 60.5655C98.0004 60.5655 98.2566 60.6021 98.4866 60.6753C98.7271 60.7485 98.9415 60.8583 99.1297 61.0047C99.3179 61.1511 99.4695 61.334 99.5845 61.5536V57.507H101.247V57.6481C101.195 57.7109 101.158 57.7788 101.137 57.852C101.116 57.9252 101.111 58.0507 101.122 58.2285V66.9806C101.122 67.1479 101.127 67.3204 101.137 67.4982C101.158 67.6655 101.205 67.8328 101.279 68.0001H99.7414C99.6891 67.8851 99.6525 67.7805 99.6316 67.6864C99.6107 67.5923 99.6002 67.4982 99.6002 67.4041C99.6002 67.3099 99.6002 67.2106 99.6002 67.106C99.4538 67.3256 99.2865 67.5191 99.0983 67.6864C98.9101 67.8432 98.6957 67.9635 98.4552 68.0471C98.2147 68.1308 97.9586 68.1726 97.6867 68.1726ZM97.9533 66.8865C98.2357 66.8865 98.4762 66.8289 98.6748 66.7139C98.8735 66.5989 99.0356 66.4316 99.1611 66.212C99.2865 65.9924 99.3807 65.7258 99.4434 65.4121C99.5061 65.0984 99.5375 64.7429 99.5375 64.3455C99.5375 63.8122 99.48 63.3574 99.365 62.9809C99.2499 62.5941 99.067 62.3013 98.816 62.1026C98.5755 61.8935 98.267 61.7889 97.8906 61.7889C97.6187 61.7889 97.3782 61.8464 97.1691 61.9614C96.96 62.0765 96.7822 62.2438 96.6358 62.4633C96.4999 62.6725 96.3953 62.9287 96.3221 63.2319C96.2489 63.5351 96.2123 63.875 96.2123 64.2514C96.2123 64.7847 96.2855 65.25 96.4319 65.6474C96.5888 66.0447 96.7979 66.3532 97.0593 66.5728C97.3207 66.7819 97.6187 66.8865 97.9533 66.8865Z" fill="white"/>
<path d="M103.365 68.0001V66.761H105.168V61.9771H103.443V60.738H106.737V66.761H108.384V68.0001H103.365ZM105.858 59.4362C105.576 59.4362 105.336 59.3421 105.137 59.1539C104.949 58.9552 104.855 58.7251 104.855 58.4637C104.855 58.1814 104.949 57.9461 105.137 57.7579C105.325 57.5697 105.566 57.4756 105.858 57.4756C106.13 57.4756 106.366 57.5749 106.564 57.7736C106.773 57.9723 106.878 58.2023 106.878 58.4637C106.878 58.7251 106.773 58.9552 106.564 59.1539C106.366 59.3421 106.13 59.4362 105.858 59.4362Z" fill="white"/>
<path d="M113.826 68.1726C113.387 68.1726 112.974 68.1308 112.587 68.0471C112.2 67.9635 111.834 67.838 111.489 67.6707C111.155 67.5034 110.846 67.289 110.564 67.0276L111.285 65.7101L111.38 65.5689L111.489 65.6317C111.51 65.7153 111.536 65.8042 111.568 65.8983C111.599 65.982 111.672 66.0865 111.787 66.212C112.038 66.4316 112.326 66.6094 112.65 66.7453C112.974 66.8708 113.371 66.9335 113.842 66.9335C114.166 66.9335 114.438 66.8969 114.658 66.8237C114.888 66.7401 115.065 66.6303 115.191 66.4943C115.316 66.3479 115.379 66.1859 115.379 66.0081C115.379 65.8722 115.343 65.7571 115.269 65.663C115.207 65.5585 115.107 65.4644 114.971 65.3807C114.835 65.2866 114.658 65.1977 114.438 65.1141C114.218 65.02 113.952 64.9311 113.638 64.8474C113.105 64.6906 112.64 64.5128 112.242 64.3141C111.845 64.105 111.536 63.8593 111.317 63.577C111.097 63.2946 110.987 62.96 110.987 62.5731C110.987 62.1862 111.097 61.8464 111.317 61.5536C111.547 61.2504 111.871 61.0099 112.289 60.8321C112.707 60.6544 113.204 60.5655 113.779 60.5655C114.093 60.5655 114.386 60.5916 114.658 60.6439C114.94 60.6857 115.196 60.7537 115.426 60.8478C115.667 60.9419 115.892 61.0622 116.101 61.2086C116.31 61.3445 116.508 61.5066 116.697 61.6948L115.803 62.8868L115.693 62.7927C115.682 62.7091 115.656 62.6306 115.614 62.5575C115.583 62.4843 115.51 62.3901 115.395 62.2751C115.165 62.1078 114.914 61.9823 114.642 61.8987C114.37 61.815 114.093 61.7732 113.811 61.7732C113.445 61.7732 113.121 61.836 112.838 61.9614C112.566 62.0869 112.43 62.2751 112.43 62.5261C112.43 62.6725 112.488 62.8084 112.603 62.9339C112.728 63.0594 112.927 63.1848 113.199 63.3103C113.471 63.4253 113.842 63.5456 114.313 63.6711C114.909 63.8279 115.39 64.0109 115.756 64.22C116.122 64.4187 116.388 64.654 116.555 64.9259C116.733 65.1977 116.822 65.5167 116.822 65.8826C116.822 66.2904 116.707 66.6721 116.477 67.0276C116.257 67.3727 115.923 67.6498 115.473 67.8589C115.024 68.068 114.475 68.1726 113.826 68.1726Z" fill="white"/>
<path d="M122.045 68.1726C121.512 68.1726 121.015 68.0837 120.555 67.906C120.105 67.7178 119.713 67.4563 119.379 67.1217C119.055 66.7767 118.798 66.3793 118.61 65.9297C118.432 65.4696 118.344 64.9677 118.344 64.4239C118.344 63.8802 118.432 63.3783 118.61 62.9182C118.798 62.4477 119.055 62.0399 119.379 61.6948C119.713 61.3497 120.105 61.0831 120.555 60.8949C121.015 60.6962 121.507 60.5969 122.029 60.5969C122.678 60.5969 123.242 60.7171 123.723 60.9576C124.215 61.1981 124.612 61.5379 124.915 61.9771L124.021 62.9182L123.912 63.028L123.818 62.9339C123.807 62.8502 123.786 62.7718 123.755 62.6986C123.734 62.615 123.666 62.5052 123.551 62.3692C123.342 62.181 123.112 62.0503 122.861 61.9771C122.61 61.8935 122.322 61.8516 121.998 61.8516C121.726 61.8516 121.465 61.9091 121.214 62.0242C120.973 62.1392 120.754 62.3065 120.555 62.5261C120.367 62.7457 120.215 63.0123 120.1 63.326C119.985 63.6397 119.928 63.99 119.928 64.3769C119.928 64.7533 119.985 65.0984 120.1 65.4121C120.215 65.7153 120.372 65.9767 120.571 66.1963C120.769 66.4055 121 66.5728 121.261 66.6982C121.533 66.8133 121.815 66.8708 122.108 66.8708C122.338 66.8708 122.558 66.8446 122.767 66.7923C122.986 66.7296 123.195 66.6355 123.394 66.51C123.593 66.3741 123.781 66.2016 123.959 65.9924L124.821 66.9962C124.445 67.4041 124.011 67.7021 123.52 67.8903C123.039 68.0785 122.547 68.1726 122.045 68.1726Z" fill="white"/>
<path d="M129.401 68.1569C128.743 68.1569 128.157 68.0001 127.645 67.6864C127.132 67.3622 126.724 66.9178 126.421 66.3532C126.118 65.7781 125.966 65.1193 125.966 64.3769C125.966 63.6449 126.118 62.9966 126.421 62.432C126.724 61.8569 127.132 61.4072 127.645 61.0831C128.157 60.7485 128.743 60.5812 129.401 60.5812C130.05 60.5812 130.63 60.7485 131.142 61.0831C131.665 61.4072 132.078 61.8569 132.381 62.432C132.685 62.9966 132.836 63.6449 132.836 64.3769C132.836 65.1088 132.685 65.7624 132.381 66.3375C132.078 66.9021 131.665 67.3465 131.142 67.6707C130.63 67.9948 130.05 68.1569 129.401 68.1569ZM129.401 66.8865C129.757 66.8865 130.071 66.7819 130.342 66.5728C130.625 66.3532 130.844 66.0552 131.001 65.6787C131.158 65.3023 131.236 64.8631 131.236 64.3612C131.236 63.8488 131.158 63.4044 131.001 63.028C130.844 62.6516 130.625 62.3588 130.342 62.1497C130.071 61.9405 129.757 61.836 129.401 61.836C129.046 61.836 128.727 61.9405 128.445 62.1497C128.173 62.3588 127.958 62.6516 127.801 63.028C127.645 63.4044 127.566 63.8488 127.566 64.3612C127.566 64.8631 127.645 65.3023 127.801 65.6787C127.958 66.0552 128.173 66.3532 128.445 66.5728C128.727 66.7819 129.046 66.8865 129.401 66.8865Z" fill="white"/>
<path d="M136.601 68.0001L133.84 60.738H135.456L137.463 66.1963H137.228L138.31 63.6397C138.519 63.1064 138.692 62.5993 138.828 62.1183C138.964 61.6373 139.053 61.1772 139.095 60.738H140.553C140.49 61.1981 140.37 61.6896 140.192 62.2124C140.025 62.7248 139.826 63.258 139.596 63.8122L137.84 68.0001H136.601Z" fill="white"/>
<path d="M145.415 68.1726C144.893 68.1726 144.412 68.089 143.972 67.9217C143.533 67.7543 143.152 67.5138 142.827 67.2001C142.514 66.876 142.268 66.4787 142.09 66.0081C141.913 65.5376 141.824 65.0043 141.824 64.4083C141.824 63.8018 141.913 63.2633 142.09 62.7927C142.268 62.3117 142.509 61.9092 142.812 61.585C143.126 61.2608 143.486 61.0099 143.894 60.8321C144.312 60.6544 144.757 60.5655 145.227 60.5655C145.635 60.5655 146.022 60.6387 146.388 60.7851C146.764 60.9315 147.089 61.1511 147.36 61.4438C147.643 61.7262 147.862 62.0869 148.019 62.5261C148.186 62.9653 148.27 63.4776 148.27 64.0632C148.27 64.1678 148.27 64.288 148.27 64.4239C148.27 64.5494 148.265 64.6592 148.254 64.7533H143.329C143.35 65.1298 143.424 65.4591 143.549 65.7415C143.674 66.0133 143.831 66.2381 144.02 66.4159C144.218 66.5937 144.443 66.7244 144.694 66.808C144.945 66.8917 145.206 66.9335 145.478 66.9335C145.719 66.9335 145.938 66.9126 146.137 66.8708C146.346 66.8185 146.545 66.7401 146.733 66.6355C146.921 66.5309 147.094 66.3898 147.251 66.212L148.066 67.0119C147.847 67.2733 147.601 67.4929 147.329 67.6707C147.057 67.838 146.759 67.9635 146.435 68.0471C146.121 68.1308 145.781 68.1726 145.415 68.1726ZM143.361 63.577H146.749C146.749 63.2842 146.712 63.028 146.639 62.8084C146.566 62.5888 146.456 62.4006 146.31 62.2438C146.174 62.0869 146.006 61.9719 145.808 61.8987C145.609 61.815 145.389 61.7732 145.149 61.7732C144.919 61.7732 144.704 61.8098 144.506 61.883C144.318 61.9562 144.145 62.066 143.988 62.2124C143.831 62.3588 143.695 62.547 143.58 62.777C143.476 62.9966 143.403 63.2633 143.361 63.577Z" fill="white"/>
<path d="M150.56 60.738H152.176L152.144 62.8084L151.956 62.6359C152.008 62.3222 152.108 62.0399 152.254 61.7889C152.4 61.5275 152.578 61.3079 152.787 61.1301C153.007 60.9524 153.247 60.8164 153.509 60.7223C153.77 60.6178 154.042 60.5655 154.324 60.5655C154.722 60.5655 155.083 60.6335 155.407 60.7694C155.731 60.9053 156.024 61.1092 156.285 61.3811L155.626 62.6672L155.564 62.8084L155.438 62.7457C155.407 62.662 155.375 62.5784 155.344 62.4947C155.313 62.4111 155.234 62.3117 155.109 62.1967C154.952 62.0921 154.795 62.0137 154.638 61.9614C154.492 61.9092 154.319 61.883 154.121 61.883C153.87 61.883 153.624 61.9301 153.383 62.0242C153.153 62.1078 152.944 62.2438 152.756 62.432C152.568 62.6202 152.416 62.8607 152.301 63.1535C152.197 63.4358 152.144 63.7809 152.144 64.1887V68.0158H150.56V60.738Z" fill="white"/>
<path d="M158.826 70.7449C158.481 70.7449 158.172 70.6874 157.901 70.5724C157.629 70.4678 157.367 70.3057 157.116 70.0862L157.697 69.0196L157.775 68.8941L157.885 68.9568C157.916 69.03 157.953 69.098 157.995 69.1608C158.047 69.2339 158.146 69.3228 158.293 69.4274C158.376 69.4588 158.465 69.4797 158.559 69.4901C158.653 69.511 158.748 69.5215 158.842 69.5215C159.082 69.5215 159.286 69.4588 159.453 69.3333C159.621 69.2183 159.767 69.0353 159.893 68.7843C160.028 68.5334 160.164 68.2092 160.3 67.8119L161.806 63.4201C161.963 62.96 162.099 62.5156 162.214 62.0869C162.339 61.6477 162.418 61.1981 162.449 60.738H163.924C163.882 61.219 163.772 61.7157 163.594 62.2281C163.427 62.7404 163.254 63.2371 163.077 63.7181L161.273 68.6902C161.001 69.4535 160.661 69.9868 160.253 70.2901C159.845 70.5933 159.37 70.7449 158.826 70.7449ZM157.414 60.738H158.999L161.194 66.4473L160.41 68.1726L157.414 60.738Z" fill="white"/>
<path d="M171.97 67.3727L165.225 63.4044V62.5104L171.923 58.95V60.4086L166.825 62.9653L171.97 65.8199V67.3727Z" fill="#99E1FF"/>
<path d="M174.746 68.6745L173.35 68.0471L178.197 57.554L179.577 58.2598L174.746 68.6745Z" fill="#99E1FF"/>
<path d="M181.334 57.507H183.028V57.6481C182.965 57.7109 182.923 57.7788 182.902 57.852C182.892 57.9252 182.886 58.0507 182.886 58.2285V61.8046C183.064 61.5432 183.273 61.3236 183.514 61.1458C183.765 60.9576 184.021 60.8164 184.282 60.7223C184.554 60.6178 184.826 60.5655 185.098 60.5655C185.558 60.5655 185.955 60.6701 186.29 60.8792C186.635 61.0883 186.902 61.4177 187.09 61.8673C187.278 62.3065 187.372 62.8921 187.372 63.624V68.0001H185.835V63.6397C185.835 63.1901 185.788 62.8346 185.694 62.5731C185.6 62.3013 185.469 62.1078 185.302 61.9928C185.135 61.8673 184.936 61.8046 184.706 61.8046C184.518 61.8046 184.335 61.836 184.157 61.8987C183.99 61.9614 183.828 62.0503 183.671 62.1653C183.514 62.2699 183.378 62.4058 183.263 62.5731C183.148 62.7404 183.054 62.9287 182.981 63.1378C182.918 63.3469 182.886 63.577 182.886 63.8279V68.0001H181.334V57.507Z" fill="#99E1FF"/>
<path d="M189.207 66.8394C189.793 66.2538 190.321 65.731 190.792 65.2709C191.262 64.8004 191.675 64.3769 192.031 64.0005C192.397 63.6136 192.7 63.258 192.94 62.9339C193.181 62.5993 193.359 62.2699 193.474 61.9457C193.599 61.6216 193.662 61.2765 193.662 60.9106C193.662 60.6491 193.625 60.4243 193.552 60.2361C193.489 60.0479 193.395 59.8963 193.27 59.7812C193.144 59.6558 192.987 59.5669 192.799 59.5146C192.621 59.4519 192.418 59.4205 192.188 59.4205C191.957 59.4205 191.738 59.4519 191.529 59.5146C191.33 59.5669 191.137 59.6558 190.948 59.7812C190.771 59.8963 190.603 60.0479 190.446 60.2361C190.342 60.3825 190.279 60.4923 190.258 60.5655C190.237 60.6387 190.232 60.7171 190.243 60.8008L190.164 60.9106L190.039 60.8321L188.972 60.0008C189.192 59.593 189.464 59.248 189.788 58.9656C190.122 58.6833 190.494 58.4742 190.901 58.3382C191.309 58.1919 191.738 58.1187 192.188 58.1187C192.763 58.1187 193.27 58.2337 193.709 58.4637C194.159 58.6938 194.514 59.0179 194.775 59.4362C195.037 59.8544 195.168 60.3511 195.168 60.9262C195.168 61.334 195.1 61.7262 194.964 62.1026C194.838 62.479 194.655 62.8502 194.415 63.2162C194.174 63.5717 193.892 63.9325 193.568 64.2985C193.244 64.6644 192.883 65.0461 192.486 65.4435C192.088 65.8408 191.665 66.2643 191.215 66.7139H194.477C194.655 66.7139 194.781 66.7035 194.854 66.6825C194.927 66.6616 194.995 66.625 195.058 66.5728H195.199V68.0001H189.207V66.8394Z" fill="#99E1FF"/>
<path d="M196.673 67.3727V65.8669L201.802 62.9653L196.689 60.4086V58.95L203.418 62.5104V63.4044L196.673 67.3727Z" fill="#99E1FF"/>
<path d="M22.9644 86.3727L16.2199 82.4044V81.5104L22.9173 77.95V79.4086L17.8198 81.9653L22.9644 84.8199V86.3727Z" fill="#99E1FF"/>
<path d="M24.3447 89.6194V79.738H25.8974V80.8987C26.0334 80.585 26.2059 80.334 26.415 80.1458C26.6346 79.9471 26.8751 79.806 27.1365 79.7223C27.398 79.6282 27.6803 79.5812 27.9835 79.5812C28.3809 79.5812 28.7521 79.6648 29.0971 79.8321C29.4527 79.989 29.7664 80.2242 30.0382 80.5379C30.3101 80.8516 30.5245 81.2438 30.6813 81.7143C30.8382 82.1848 30.9166 82.7338 30.9166 83.3612C30.9166 83.9991 30.8329 84.5585 30.6656 85.0395C30.4983 85.5205 30.2735 85.9231 29.9912 86.2472C29.7193 86.5609 29.4056 86.7962 29.0501 86.953C28.6946 87.1099 28.3286 87.1883 27.9522 87.1883C27.6907 87.1883 27.4293 87.1517 27.1679 87.0785C26.917 87.0158 26.6869 86.9164 26.4778 86.7805C26.2687 86.6341 26.0857 86.4668 25.9288 86.2786V89.6194H24.3447ZM27.56 85.9335C27.8005 85.9335 28.0253 85.8917 28.2345 85.808C28.4436 85.7139 28.6318 85.5728 28.7991 85.3845C28.9664 85.1859 29.0971 84.9192 29.1913 84.5846C29.2854 84.2396 29.3324 83.8213 29.3324 83.3298C29.3324 82.807 29.2644 82.3626 29.1285 81.9966C29.003 81.6306 28.8148 81.3483 28.5639 81.1497C28.3234 80.951 28.0306 80.8464 27.6855 80.836C27.4241 80.8255 27.1836 80.8726 26.964 80.9771C26.7444 81.0712 26.5562 81.2281 26.3994 81.4477C26.2425 81.6568 26.1223 81.9391 26.0386 82.2946C25.9654 82.6397 25.9288 83.0527 25.9288 83.5337C25.9288 83.8579 25.9497 84.1507 25.9916 84.4121C26.0438 84.663 26.117 84.8879 26.2111 85.0865C26.3053 85.2748 26.415 85.4316 26.5405 85.5571C26.6765 85.6826 26.8281 85.7767 26.9954 85.8394C27.1731 85.9021 27.3614 85.9335 27.56 85.9335Z" fill="#99E1FF"/>
<path d="M31.9831 86.3727V84.8669L37.1121 81.9653L31.9988 79.4086V77.95L38.7276 81.5104V82.4044L31.9831 86.3727Z" fill="#99E1FF"/>
<path d="M42.288 87.0001V78.546H39.6216V77.2128H46.6014V78.546H43.8095V87.0001H42.288Z" fill="white"/>
<path d="M48.013 76.507H49.7069V76.6481C49.6442 76.7109 49.6024 76.7788 49.5815 76.852C49.571 76.9252 49.5658 77.0507 49.5658 77.2285V80.8046C49.7435 80.5432 49.9527 80.3236 50.1932 80.1458C50.4441 79.9576 50.7003 79.8164 50.9617 79.7223C51.2336 79.6178 51.5055 79.5655 51.7773 79.5655C52.2374 79.5655 52.6348 79.6701 52.9694 79.8792C53.3144 80.0883 53.5811 80.4177 53.7693 80.8673C53.9575 81.3065 54.0516 81.8921 54.0516 82.624V87.0001H52.5145V82.6397C52.5145 82.1901 52.4675 81.8345 52.3734 81.5731C52.2793 81.3013 52.1485 81.1078 51.9812 80.9928C51.8139 80.8673 51.6153 80.8046 51.3852 80.8046C51.197 80.8046 51.014 80.836 50.8363 80.8987C50.6689 80.9614 50.5069 81.0503 50.35 81.1653C50.1932 81.2699 50.0572 81.4058 49.9422 81.5731C49.8272 81.7404 49.7331 81.9287 49.6599 82.1378C49.5972 82.3469 49.5658 82.577 49.5658 82.8279V87.0001H48.013V76.507Z" fill="white"/>
<path d="M56.3102 87.0001V85.761H58.114V80.9771H56.3887V79.738H59.6825V85.761H61.3294V87.0001H56.3102ZM58.8041 78.4362C58.5218 78.4362 58.2813 78.3421 58.0826 78.1539C57.8944 77.9552 57.8003 77.7251 57.8003 77.4637C57.8003 77.1814 57.8944 76.9461 58.0826 76.7579C58.2708 76.5697 58.5113 76.4756 58.8041 76.4756C59.076 76.4756 59.3113 76.5749 59.5099 76.7736C59.7191 76.9723 59.8236 77.2023 59.8236 77.4637C59.8236 77.7251 59.7191 77.9552 59.5099 78.1539C59.3113 78.3421 59.076 78.4362 58.8041 78.4362Z" fill="white"/>
<path d="M66.772 87.1726C66.3328 87.1726 65.9198 87.1308 65.5329 87.0471C65.146 86.9635 64.78 86.838 64.435 86.6707C64.1004 86.5034 63.7919 86.289 63.5096 86.0276L64.2311 84.7101L64.3252 84.5689L64.435 84.6317C64.4559 84.7153 64.482 84.8042 64.5134 84.8983C64.5448 84.982 64.6179 85.0865 64.733 85.212C64.9839 85.4316 65.2715 85.6094 65.5956 85.7453C65.9198 85.8708 66.3171 85.9335 66.7877 85.9335C67.1118 85.9335 67.3837 85.8969 67.6033 85.8237C67.8333 85.7401 68.0111 85.6303 68.1366 85.4943C68.262 85.3479 68.3248 85.1859 68.3248 85.0081C68.3248 84.8722 68.2882 84.7571 68.215 84.663C68.1522 84.5585 68.0529 84.4644 67.917 84.3807C67.781 84.2866 67.6033 84.1977 67.3837 84.1141C67.1641 84.02 66.8975 83.9311 66.5838 83.8474C66.0505 83.6906 65.5852 83.5128 65.1878 83.3141C64.7905 83.105 64.482 82.8593 64.2624 82.577C64.0428 82.2946 63.933 81.96 63.933 81.5731C63.933 81.1862 64.0428 80.8464 64.2624 80.5536C64.4925 80.2504 64.8166 80.0099 65.2349 79.8321C65.6531 79.6544 66.1498 79.5655 66.7249 79.5655C67.0386 79.5655 67.3314 79.5916 67.6033 79.6439C67.8856 79.6857 68.1418 79.7537 68.3718 79.8478C68.6123 79.9419 68.8372 80.0622 69.0463 80.2086C69.2554 80.3445 69.4541 80.5066 69.6423 80.6948L68.7483 81.8868L68.6385 81.7927C68.628 81.7091 68.6019 81.6307 68.5601 81.5575C68.5287 81.4843 68.4555 81.3902 68.3405 81.2751C68.1104 81.1078 67.8595 80.9823 67.5876 80.8987C67.3157 80.815 67.0386 80.7732 66.7563 80.7732C66.3903 80.7732 66.0662 80.836 65.7839 80.9614C65.512 81.0869 65.376 81.2751 65.376 81.5261C65.376 81.6725 65.4336 81.8084 65.5486 81.9339C65.6741 82.0594 65.8727 82.1848 66.1446 82.3103C66.4165 82.4253 66.7877 82.5456 67.2582 82.6711C67.8542 82.8279 68.3352 83.0109 68.7012 83.22C69.0672 83.4187 69.3338 83.654 69.5011 83.9259C69.6789 84.1977 69.7678 84.5167 69.7678 84.8826C69.7678 85.2904 69.6528 85.6721 69.4227 86.0276C69.2031 86.3727 68.8685 86.6498 68.4189 86.8589C67.9693 87.068 67.4203 87.1726 66.772 87.1726Z" fill="white"/>
<path d="M79.8374 87.0001V85.761H81.6412V80.9771H79.9158V79.738H83.2096V85.761H84.8565V87.0001H79.8374ZM82.3313 78.4362C82.049 78.4362 81.8085 78.3421 81.6098 78.1539C81.4216 77.9552 81.3275 77.7251 81.3275 77.4637C81.3275 77.1814 81.4216 76.9461 81.6098 76.7579C81.798 76.5697 82.0385 76.4756 82.3313 76.4756C82.6032 76.4756 82.8384 76.5749 83.0371 76.7736C83.2462 76.9723 83.3508 77.2023 83.3508 77.4637C83.3508 77.7251 83.2462 77.9552 83.0371 78.1539C82.8384 78.3421 82.6032 78.4362 82.3313 78.4362Z" fill="white"/>
<path d="M90.2992 87.1726C89.86 87.1726 89.447 87.1308 89.0601 87.0471C88.6732 86.9635 88.3072 86.838 87.9621 86.6707C87.6275 86.5034 87.3191 86.289 87.0367 86.0276L87.7582 84.7101L87.8523 84.5689L87.9621 84.6317C87.983 84.7153 88.0092 84.8042 88.0406 84.8983C88.0719 84.982 88.1451 85.0865 88.2601 85.212C88.5111 85.4316 88.7987 85.6094 89.1228 85.7453C89.447 85.8708 89.8443 85.9335 90.3148 85.9335C90.639 85.9335 90.9109 85.8969 91.1305 85.8237C91.3605 85.7401 91.5383 85.6303 91.6637 85.4943C91.7892 85.3479 91.852 85.1859 91.852 85.0081C91.852 84.8722 91.8154 84.7571 91.7422 84.663C91.6794 84.5585 91.5801 84.4644 91.4442 84.3807C91.3082 84.2866 91.1305 84.1977 90.9109 84.1141C90.6913 84.02 90.4246 83.9311 90.1109 83.8474C89.5777 83.6906 89.1124 83.5128 88.715 83.3141C88.3177 83.105 88.0092 82.8593 87.7896 82.577C87.57 82.2946 87.4602 81.96 87.4602 81.5731C87.4602 81.1862 87.57 80.8464 87.7896 80.5536C88.0196 80.2504 88.3438 80.0099 88.7621 79.8321C89.1803 79.6544 89.677 79.5655 90.2521 79.5655C90.5658 79.5655 90.8586 79.5916 91.1305 79.6439C91.4128 79.6857 91.669 79.7537 91.899 79.8478C92.1395 79.9419 92.3643 80.0622 92.5735 80.2086C92.7826 80.3445 92.9813 80.5066 93.1695 80.6948L92.2755 81.8868L92.1657 81.7927C92.1552 81.7091 92.1291 81.6307 92.0872 81.5575C92.0559 81.4843 91.9827 81.3902 91.8676 81.2751C91.6376 81.1078 91.3866 80.9823 91.1148 80.8987C90.8429 80.815 90.5658 80.7732 90.2835 80.7732C89.9175 80.7732 89.5934 80.836 89.311 80.9614C89.0392 81.0869 88.9032 81.2751 88.9032 81.5261C88.9032 81.6725 88.9607 81.8084 89.0758 81.9339C89.2012 82.0594 89.3999 82.1848 89.6718 82.3103C89.9436 82.4253 90.3148 82.5456 90.7854 82.6711C91.3814 82.8279 91.8624 83.0109 92.2284 83.22C92.5944 83.4187 92.861 83.654 93.0283 83.9259C93.2061 84.1977 93.295 84.5167 93.295 84.8826C93.295 85.2904 93.1799 85.6721 92.9499 86.0276C92.7303 86.3727 92.3957 86.6498 91.9461 86.8589C91.4964 87.068 90.9475 87.1726 90.2992 87.1726Z" fill="white"/>
<path d="M106.643 87.1412C106.214 87.1412 105.843 87.0733 105.529 86.9373C105.226 86.7909 104.98 86.5609 104.792 86.2472C104.614 85.9335 104.489 85.5257 104.415 85.0238C104.342 84.5219 104.316 83.9102 104.337 83.1887L104.541 77.9813L106.141 77.7774L106.298 77.7617L106.313 77.9029C106.261 77.9761 106.214 78.0493 106.172 78.1225C106.141 78.1957 106.115 78.3212 106.094 78.4989L105.937 80.5223L106 80.6948L105.89 83.1887C105.858 83.8997 105.879 84.4539 105.953 84.8513C106.026 85.2381 106.151 85.51 106.329 85.6669C106.507 85.8133 106.721 85.8865 106.972 85.8865C107.307 85.8865 107.605 85.8185 107.866 85.6825C108.138 85.5466 108.405 85.3793 108.666 85.1806L109.011 86.3413C108.656 86.6027 108.284 86.8014 107.897 86.9373C107.511 87.0733 107.092 87.1412 106.643 87.1412ZM102.925 79.738H108.399L108.384 80.9928H102.925V79.738Z" fill="white"/>
<path d="M110.752 76.507H112.446V76.6481C112.383 76.7109 112.342 76.7788 112.321 76.852C112.31 76.9252 112.305 77.0507 112.305 77.2285V80.8046C112.483 80.5432 112.692 80.3236 112.932 80.1458C113.183 79.9576 113.439 79.8164 113.701 79.7223C113.973 79.6178 114.245 79.5655 114.516 79.5655C114.977 79.5655 115.374 79.6701 115.709 79.8792C116.054 80.0883 116.32 80.4177 116.508 80.8673C116.697 81.3065 116.791 81.8921 116.791 82.624V87.0001H115.254V82.6397C115.254 82.1901 115.207 81.8345 115.112 81.5731C115.018 81.3013 114.888 81.1078 114.72 80.9928C114.553 80.8673 114.354 80.8046 114.124 80.8046C113.936 80.8046 113.753 80.836 113.575 80.8987C113.408 80.9614 113.246 81.0503 113.089 81.1653C112.932 81.2699 112.796 81.4058 112.681 81.5731C112.566 81.7404 112.472 81.9287 112.399 82.1378C112.336 82.3469 112.305 82.577 112.305 82.8279V87.0001H110.752V76.507Z" fill="white"/>
<path d="M121.888 87.1726C121.365 87.1726 120.884 87.089 120.445 86.9217C120.006 86.7543 119.624 86.5138 119.3 86.2001C118.987 85.876 118.741 85.4787 118.563 85.0081C118.385 84.5376 118.297 84.0043 118.297 83.4083C118.297 82.8018 118.385 82.2633 118.563 81.7927C118.741 81.3117 118.981 80.9092 119.285 80.585C119.598 80.2608 119.959 80.0099 120.367 79.8321C120.785 79.6544 121.23 79.5655 121.7 79.5655C122.108 79.5655 122.495 79.6387 122.861 79.7851C123.237 79.9315 123.561 80.151 123.833 80.4438C124.116 80.7262 124.335 81.0869 124.492 81.5261C124.659 81.9653 124.743 82.4776 124.743 83.0632C124.743 83.1678 124.743 83.288 124.743 83.4239C124.743 83.5494 124.738 83.6592 124.727 83.7533H119.802C119.823 84.1298 119.896 84.4591 120.022 84.7415C120.147 85.0133 120.304 85.2381 120.492 85.4159C120.691 85.5937 120.916 85.7244 121.167 85.808C121.418 85.8917 121.679 85.9335 121.951 85.9335C122.192 85.9335 122.411 85.9126 122.61 85.8708C122.819 85.8185 123.018 85.7401 123.206 85.6355C123.394 85.5309 123.567 85.3898 123.723 85.212L124.539 86.0119C124.319 86.2733 124.074 86.4929 123.802 86.6707C123.53 86.838 123.232 86.9635 122.908 87.0471C122.594 87.1308 122.254 87.1726 121.888 87.1726ZM119.834 82.577H123.222C123.222 82.2842 123.185 82.028 123.112 81.8084C123.039 81.5888 122.929 81.4006 122.782 81.2438C122.646 81.0869 122.479 80.9719 122.28 80.8987C122.082 80.815 121.862 80.7732 121.622 80.7732C121.392 80.7732 121.177 80.8098 120.979 80.883C120.79 80.9562 120.618 81.066 120.461 81.2124C120.304 81.3588 120.168 81.547 120.053 81.777C119.949 81.9966 119.875 82.2633 119.834 82.577Z" fill="white"/>
<path d="M137.354 87.1726C136.914 87.1726 136.501 87.1308 136.114 87.0471C135.728 86.9635 135.362 86.838 135.016 86.6707C134.682 86.5034 134.373 86.289 134.091 86.0276L134.813 84.7101L134.907 84.5689L135.016 84.6317C135.037 84.7153 135.064 84.8042 135.095 84.8983C135.126 84.982 135.199 85.0865 135.314 85.212C135.565 85.4316 135.853 85.6094 136.177 85.7453C136.501 85.8708 136.899 85.9335 137.369 85.9335C137.693 85.9335 137.965 85.8969 138.185 85.8237C138.415 85.7401 138.593 85.6303 138.718 85.4943C138.844 85.3479 138.906 85.1859 138.906 85.0081C138.906 84.8722 138.87 84.7571 138.797 84.663C138.734 84.5585 138.634 84.4644 138.499 84.3807C138.363 84.2866 138.185 84.1977 137.965 84.1141C137.746 84.02 137.479 83.9311 137.165 83.8474C136.632 83.6906 136.167 83.5128 135.769 83.3141C135.372 83.105 135.064 82.8593 134.844 82.577C134.624 82.2946 134.515 81.96 134.515 81.5731C134.515 81.1862 134.624 80.8464 134.844 80.5536C135.074 80.2504 135.398 80.0099 135.816 79.8321C136.235 79.6544 136.731 79.5655 137.306 79.5655C137.62 79.5655 137.913 79.5916 138.185 79.6439C138.467 79.6857 138.723 79.7537 138.953 79.8478C139.194 79.9419 139.419 80.0622 139.628 80.2086C139.837 80.3445 140.036 80.5066 140.224 80.6948L139.33 81.8868L139.22 81.7927C139.21 81.7091 139.183 81.6307 139.142 81.5575C139.11 81.4843 139.037 81.3902 138.922 81.2751C138.692 81.1078 138.441 80.9823 138.169 80.8987C137.897 80.815 137.62 80.7732 137.338 80.7732C136.972 80.7732 136.648 80.836 136.365 80.9614C136.094 81.0869 135.958 81.2751 135.958 81.5261C135.958 81.6725 136.015 81.8084 136.13 81.9339C136.256 82.0594 136.454 82.1848 136.726 82.3103C136.998 82.4253 137.369 82.5456 137.84 82.6711C138.436 82.8279 138.917 83.0109 139.283 83.22C139.649 83.4187 139.915 83.654 140.083 83.9259C140.26 84.1977 140.349 84.5167 140.349 84.8826C140.349 85.2904 140.234 85.6721 140.004 86.0276C139.785 86.3727 139.45 86.6498 139 86.8589C138.551 87.068 138.002 87.1726 137.354 87.1726Z" fill="white"/>
<path d="M145.855 87.1412C145.426 87.1412 145.055 87.0733 144.741 86.9373C144.438 86.7909 144.192 86.5609 144.004 86.2472C143.826 85.9335 143.701 85.5257 143.627 85.0238C143.554 84.5219 143.528 83.9102 143.549 83.1887L143.753 77.9813L145.353 77.7774L145.51 77.7617L145.525 77.9029C145.473 77.9761 145.426 78.0493 145.384 78.1225C145.353 78.1957 145.327 78.3212 145.306 78.4989L145.149 80.5223L145.212 80.6948L145.102 83.1887C145.07 83.8997 145.091 84.4539 145.165 84.8513C145.238 85.2381 145.363 85.51 145.541 85.6669C145.719 85.8133 145.933 85.8865 146.184 85.8865C146.519 85.8865 146.817 85.8185 147.078 85.6825C147.35 85.5466 147.617 85.3793 147.878 85.1806L148.223 86.3413C147.868 86.6027 147.496 86.8014 147.109 86.9373C146.723 87.0733 146.304 87.1412 145.855 87.1412ZM142.137 79.738H147.611L147.596 80.9928H142.137V79.738Z" fill="white"/>
<path d="M152.928 87.1569C152.27 87.1569 151.684 87.0001 151.172 86.6864C150.659 86.3622 150.252 85.9178 149.948 85.3532C149.645 84.7781 149.494 84.1193 149.494 83.3769C149.494 82.6449 149.645 81.9966 149.948 81.432C150.252 80.8569 150.659 80.4072 151.172 80.0831C151.684 79.7485 152.27 79.5812 152.928 79.5812C153.577 79.5812 154.157 79.7485 154.67 80.0831C155.192 80.4072 155.605 80.8569 155.909 81.432C156.212 81.9966 156.363 82.6449 156.363 83.3769C156.363 84.1088 156.212 84.7624 155.909 85.3375C155.605 85.9021 155.192 86.3465 154.67 86.6707C154.157 86.9948 153.577 87.1569 152.928 87.1569ZM152.928 85.8865C153.284 85.8865 153.598 85.7819 153.87 85.5728C154.152 85.3532 154.372 85.0552 154.528 84.6787C154.685 84.3023 154.764 83.8631 154.764 83.3612C154.764 82.8488 154.685 82.4044 154.528 82.028C154.372 81.6516 154.152 81.3588 153.87 81.1497C153.598 80.9405 153.284 80.836 152.928 80.836C152.573 80.836 152.254 80.9405 151.972 81.1497C151.7 81.3588 151.486 81.6516 151.329 82.028C151.172 82.4044 151.093 82.8488 151.093 83.3612C151.093 83.8631 151.172 84.3023 151.329 84.6787C151.486 85.0552 151.7 85.3532 151.972 85.5728C152.254 85.7819 152.573 85.8865 152.928 85.8865Z" fill="white"/>
<path d="M158.402 79.738H160.018L159.987 81.8084L159.798 81.6359C159.851 81.3222 159.95 81.0399 160.096 80.7889C160.243 80.5275 160.421 80.3079 160.63 80.1301C160.849 79.9524 161.09 79.8164 161.351 79.7223C161.613 79.6178 161.885 79.5655 162.167 79.5655C162.564 79.5655 162.925 79.6335 163.249 79.7694C163.573 79.9053 163.866 80.1092 164.127 80.3811L163.469 81.6673L163.406 81.8084L163.28 81.7457C163.249 81.662 163.218 81.5784 163.186 81.4947C163.155 81.4111 163.077 81.3117 162.951 81.1967C162.794 81.0921 162.637 81.0137 162.481 80.9614C162.334 80.9092 162.162 80.883 161.963 80.883C161.712 80.883 161.466 80.9301 161.226 81.0242C160.996 81.1078 160.787 81.2438 160.598 81.432C160.41 81.6202 160.259 81.8607 160.144 82.1535C160.039 82.4358 159.987 82.7809 159.987 83.1887V87.0158H158.402V79.738Z" fill="white"/>
<path d="M166.668 89.7449C166.323 89.7449 166.015 89.6874 165.743 89.5724C165.471 89.4678 165.21 89.3057 164.959 89.0862L165.539 88.0196L165.617 87.8941L165.727 87.9568C165.759 88.03 165.795 88.098 165.837 88.1608C165.889 88.2339 165.989 88.3228 166.135 88.4274C166.219 88.4588 166.308 88.4797 166.402 88.4901C166.496 88.511 166.59 88.5215 166.684 88.5215C166.925 88.5215 167.128 88.4588 167.296 88.3333C167.463 88.2183 167.609 88.0353 167.735 87.7843C167.871 87.5334 168.007 87.2092 168.143 86.8119L169.648 82.4201C169.805 81.96 169.941 81.5156 170.056 81.0869C170.182 80.6477 170.26 80.1981 170.292 79.738H171.766C171.724 80.219 171.614 80.7157 171.437 81.2281C171.269 81.7404 171.097 82.2371 170.919 82.7181L169.115 87.6902C168.843 88.4535 168.503 88.9868 168.096 89.2901C167.688 89.5933 167.212 89.7449 166.668 89.7449ZM165.257 79.738H166.841L169.037 85.4473L168.253 87.1726L165.257 79.738Z" fill="white"/>
<path d="M179.812 86.3727L173.068 82.4044V81.5104L179.765 77.95V79.4086L174.668 81.9653L179.812 84.8199V86.3727Z" fill="#99E1FF"/>
<path d="M182.588 87.6745L181.192 87.0471L186.039 76.554L187.419 77.2598L182.588 87.6745Z" fill="#99E1FF"/>
<path d="M189.035 89.6194V79.738H190.588V80.8987C190.724 80.585 190.896 80.334 191.105 80.1458C191.325 79.9471 191.565 79.806 191.827 79.7223C192.088 79.6282 192.37 79.5812 192.674 79.5812C193.071 79.5812 193.442 79.6648 193.787 79.8321C194.143 79.989 194.457 80.2242 194.728 80.5379C195 80.8516 195.215 81.2438 195.372 81.7143C195.528 82.1848 195.607 82.7338 195.607 83.3612C195.607 83.9991 195.523 84.5585 195.356 85.0395C195.189 85.5205 194.964 85.9231 194.681 86.2472C194.41 86.5609 194.096 86.7962 193.74 86.953C193.385 87.1099 193.019 87.1883 192.642 87.1883C192.381 87.1883 192.12 87.1517 191.858 87.0785C191.607 87.0158 191.377 86.9164 191.168 86.7805C190.959 86.6341 190.776 86.4668 190.619 86.2786V89.6194H189.035ZM192.25 85.9335C192.491 85.9335 192.716 85.8917 192.925 85.808C193.134 85.7139 193.322 85.5728 193.489 85.3845C193.657 85.1859 193.787 84.9192 193.881 84.5846C193.976 84.2396 194.023 83.8213 194.023 83.3298C194.023 82.807 193.955 82.3626 193.819 81.9966C193.693 81.6306 193.505 81.3483 193.254 81.1497C193.014 80.951 192.721 80.8464 192.376 80.836C192.114 80.8255 191.874 80.8726 191.654 80.9771C191.435 81.0712 191.246 81.2281 191.09 81.4477C190.933 81.6568 190.812 81.9391 190.729 82.2946C190.656 82.6397 190.619 83.0527 190.619 83.5337C190.619 83.8579 190.64 84.1507 190.682 84.4121C190.734 84.663 190.807 84.8879 190.901 85.0865C190.995 85.2748 191.105 85.4316 191.231 85.5571C191.367 85.6826 191.518 85.7767 191.686 85.8394C191.863 85.9021 192.052 85.9335 192.25 85.9335Z" fill="#99E1FF"/>
<path d="M196.673 86.3727V84.8669L201.802 81.9653L196.689 79.4086V77.95L203.418 81.5104V82.4044L196.673 86.3727Z" fill="#99E1FF"/>
<path d="M7.27961 105.373L0.535156 101.404V100.51L7.23256 96.95V98.4086L2.135 100.965L7.27961 103.82V105.373Z" fill="#99E1FF"/>
<path d="M10.0558 106.675L8.65987 106.047L13.5065 95.554L14.8867 96.2598L10.0558 106.675Z" fill="#99E1FF"/>
<path d="M19.9843 106.173C19.7229 106.173 19.4667 106.131 19.2157 106.047C18.9752 105.974 18.7452 105.864 18.5256 105.718C18.3165 105.561 18.1283 105.373 17.9609 105.153L17.6316 106H16.5023V95.507H18.2119V95.6481C18.1596 95.7109 18.123 95.7788 18.1021 95.852C18.0917 95.9252 18.0864 96.0507 18.0864 96.2285V99.6634C18.191 99.4961 18.3165 99.3497 18.4629 99.2243C18.6093 99.0883 18.7661 98.9733 18.9334 98.8792C19.1112 98.7746 19.2942 98.6962 19.4824 98.6439C19.681 98.5916 19.8745 98.5655 20.0627 98.5655C20.5019 98.5759 20.8992 98.6596 21.2548 98.8164C21.6207 98.9628 21.9344 99.1929 22.1958 99.5066C22.4573 99.8098 22.6559 100.191 22.7919 100.652C22.9383 101.112 23.0114 101.65 23.0114 102.267C23.0114 102.926 22.9278 103.501 22.7605 103.992C22.6036 104.484 22.3841 104.892 22.1017 105.216C21.8194 105.54 21.4953 105.78 21.1293 105.937C20.7633 106.094 20.3816 106.173 19.9843 106.173ZM19.7176 104.918C19.9477 104.918 20.162 104.876 20.3607 104.792C20.5699 104.709 20.7528 104.568 20.9097 104.369C21.077 104.17 21.2077 103.909 21.3018 103.585C21.3959 103.26 21.443 102.868 21.443 102.408C21.443 101.98 21.4011 101.603 21.3175 101.279C21.2443 100.955 21.1345 100.683 20.9881 100.463C20.8417 100.233 20.6587 100.066 20.4391 99.9614C20.23 99.8464 20 99.7889 19.749 99.7889C19.4039 99.7889 19.1059 99.8935 18.855 100.103C18.6145 100.312 18.4263 100.61 18.2903 100.997C18.1544 101.373 18.0864 101.823 18.0864 102.346C18.0864 102.753 18.1178 103.119 18.1805 103.443C18.2433 103.757 18.3374 104.024 18.4629 104.243C18.5988 104.463 18.7661 104.63 18.9648 104.745C19.1739 104.86 19.4249 104.918 19.7176 104.918Z" fill="#99E1FF"/>
<path d="M27.4502 106.157C26.7915 106.157 26.2059 106 25.6935 105.686C25.1812 105.362 24.7734 104.918 24.4701 104.353C24.1669 103.778 24.0153 103.119 24.0153 102.377C24.0153 101.645 24.1669 100.997 24.4701 100.432C24.7734 99.8569 25.1812 99.4072 25.6935 99.0831C26.2059 98.7485 26.7915 98.5812 27.4502 98.5812C28.0985 98.5812 28.6789 98.7485 29.1913 99.0831C29.7141 99.4072 30.1271 99.8569 30.4303 100.432C30.7336 100.997 30.8852 101.645 30.8852 102.377C30.8852 103.109 30.7336 103.762 30.4303 104.337C30.1271 104.902 29.7141 105.347 29.1913 105.671C28.6789 105.995 28.0985 106.157 27.4502 106.157ZM27.4502 104.886C27.8058 104.886 28.1195 104.782 28.3913 104.573C28.6737 104.353 28.8932 104.055 29.0501 103.679C29.2069 103.302 29.2854 102.863 29.2854 102.361C29.2854 101.849 29.2069 101.404 29.0501 101.028C28.8932 100.652 28.6737 100.359 28.3913 100.15C28.1195 99.9405 27.8058 99.836 27.4502 99.836C27.0947 99.836 26.7758 99.9405 26.4935 100.15C26.2216 100.359 26.0072 100.652 25.8504 101.028C25.6935 101.404 25.6151 101.849 25.6151 102.361C25.6151 102.863 25.6935 103.302 25.8504 103.679C26.0072 104.055 26.2216 104.353 26.4935 104.573C26.7758 104.782 27.0947 104.886 27.4502 104.886Z" fill="#99E1FF"/>
<path d="M34.9476 106.173C34.5607 106.173 34.1842 106.094 33.8183 105.937C33.4627 105.77 33.1438 105.53 32.8615 105.216C32.5792 104.902 32.3544 104.505 32.187 104.024C32.0302 103.532 31.9518 102.968 31.9518 102.33C31.9518 101.682 32.0302 101.122 32.187 100.652C32.3544 100.181 32.5792 99.7941 32.8615 99.4909C33.1438 99.1772 33.468 98.9471 33.834 98.8008C34.1999 98.6439 34.5816 98.5655 34.9789 98.5655C35.2613 98.5655 35.5175 98.6021 35.7475 98.6753C35.988 98.7485 36.2024 98.8583 36.3906 99.0047C36.5788 99.1511 36.7304 99.334 36.8454 99.5536V95.507H38.508V95.6481C38.4557 95.7109 38.4191 95.7788 38.3982 95.852C38.3773 95.9252 38.3721 96.0507 38.3825 96.2285V104.981C38.3825 105.148 38.3878 105.32 38.3982 105.498C38.4191 105.665 38.4662 105.833 38.5394 106H37.0023C36.95 105.885 36.9134 105.78 36.8925 105.686C36.8716 105.592 36.8611 105.498 36.8611 105.404C36.8611 105.31 36.8611 105.211 36.8611 105.106C36.7147 105.326 36.5474 105.519 36.3592 105.686C36.171 105.843 35.9566 105.963 35.7161 106.047C35.4756 106.131 35.2194 106.173 34.9476 106.173ZM35.2142 104.886C35.4965 104.886 35.737 104.829 35.9357 104.714C36.1344 104.599 36.2965 104.432 36.4219 104.212C36.5474 103.992 36.6415 103.726 36.7043 103.412C36.767 103.098 36.7984 102.743 36.7984 102.346C36.7984 101.812 36.7409 101.357 36.6258 100.981C36.5108 100.594 36.3278 100.301 36.0769 100.103C35.8364 99.8935 35.5279 99.7889 35.1515 99.7889C34.8796 99.7889 34.6391 99.8464 34.43 99.9614C34.2208 100.076 34.0431 100.244 33.8967 100.463C33.7608 100.672 33.6562 100.929 33.583 101.232C33.5098 101.535 33.4732 101.875 33.4732 102.251C33.4732 102.785 33.5464 103.25 33.6928 103.647C33.8496 104.045 34.0588 104.353 34.3202 104.573C34.5816 104.782 34.8796 104.886 35.2142 104.886Z" fill="#99E1FF"/>
<path d="M41.1901 108.745C40.845 108.745 40.5366 108.687 40.2647 108.572C39.9928 108.468 39.7314 108.306 39.4805 108.086L40.0608 107.02L40.1392 106.894L40.249 106.957C40.2804 107.03 40.317 107.098 40.3588 107.161C40.4111 107.234 40.5104 107.323 40.6568 107.427C40.7405 107.459 40.8294 107.48 40.9235 107.49C41.0176 107.511 41.1117 107.521 41.2058 107.521C41.4463 107.521 41.6502 107.459 41.8175 107.333C41.9848 107.218 42.1312 107.035 42.2567 106.784C42.3926 106.533 42.5285 106.209 42.6645 105.812L44.1702 101.42C44.3271 100.96 44.463 100.516 44.578 100.087C44.7035 99.6477 44.7819 99.1981 44.8133 98.738H46.2877C46.2458 99.219 46.136 99.7157 45.9583 100.228C45.791 100.74 45.6185 101.237 45.4407 101.718L43.6369 106.69C43.3651 107.454 43.0252 107.987 42.6174 108.29C42.2096 108.593 41.7339 108.745 41.1901 108.745ZM39.7785 98.738H41.3626L43.5585 104.447L42.7743 106.173L39.7785 98.738Z" fill="#99E1FF"/>
<path d="M47.6679 105.373V103.867L52.7968 100.965L47.6836 98.4086V96.95L54.4124 100.51V101.404L47.6679 105.373Z" fill="#99E1FF"/>
</g>
<defs>
<clipPath id="clip0_456_2">
<rect width="283" height="109" fill="white"/>
</clipPath>
</defs>
</svg>
