<svg width="186" height="78" viewBox="0 0 186 78" fill="none" xmlns="http://www.w3.org/2000/svg">
<g clip-path="url(#clip0_419_140)">
<path d="M87.7222 2.17372C84.8088 3.05718 81.8029 3.83367 80.0598 6.78696C79.2638 8.13557 79.3437 9.82657 79.3437 11.3809C79.3437 12.9136 79.2224 14.4976 79.5854 15.9845C79.9704 17.562 81.027 18.9286 82.0828 20.0669C82.7935 20.8331 83.4346 21.9731 84.3386 22.4604C85.4224 23.0447 86.8619 23.444 88.0803 23.5413C88.5493 23.5788 89.0388 23.7945 89.4946 23.9274C90.5144 24.2245 91.4334 24.2362 92.4844 24.2362C93.3074 24.2362 94.5734 23.6544 95.2146 23.1167C97.2018 21.4503 99.4725 19.7473 99.9589 16.8627C100.381 14.3601 100.613 11.478 99.5203 9.12253C98.9259 7.84074 98.1195 6.72816 97.4704 5.48406C96.7671 4.13593 95.6441 3.79888 94.3553 3.31255C93.0895 2.83489 91.6127 2.73023 90.3003 2.38605C89.3614 2.13982 88.3454 2 87.4 2" stroke="white" stroke-width="1.93352" stroke-linecap="round"/>
<path d="M86.5915 24.9312C86.5915 27.0473 84.3496 28.7746 83.4495 30.4999C82.2787 32.7439 81.3324 35.4112 80.6298 37.8733C79.8729 40.5253 78.8139 43.4698 78.6963 46.2601C78.6336 47.7465 77.8906 49.137 77.8906 50.6418" stroke="white" stroke-width="1.93352" stroke-linecap="round"/>
<path d="M86.4336 24.0625C86.4336 25.301 87.0697 26.1345 87.3108 27.286C87.6192 28.7582 87.9023 30.2328 88.206 31.7062C88.7042 34.1235 89.6861 36.7025 89.8172 39.1762C89.8877 40.5061 90.3882 42.0664 90.7124 43.3648C90.9536 44.3306 91.0043 45.6016 91.5091 46.4724C91.8797 47.1117 91.6603 48.2073 91.9477 48.9045C92.1784 49.4641 92.1537 50.1207 92.3953 50.6417" stroke="white" stroke-width="1.93352" stroke-linecap="round"/>
<path d="M86.2673 26.147C85.7595 26.7629 85.6946 28.4902 85.6138 29.2739C85.4985 30.3931 85.1394 31.4115 85.1394 32.5746C85.1394 34.9001 85.3655 37.2175 85.6317 39.5138C85.8367 41.2819 85.945 43.0123 85.945 44.8219C85.945 45.4341 86.3269 46.1742 86.0704 46.8197C85.6217 47.9485 85.3005 49.2714 85.3005 50.5064C85.3005 55.3491 82.9645 59.8299 81.8363 64.4523C81.4983 65.8372 81.0948 67.2106 80.789 68.6119C80.4835 70.0116 80.2964 71.5101 79.9028 72.8681C79.4813 74.3221 78.8555 76.0807 78.8555 77.5682" stroke="white" stroke-width="1.93352" stroke-linecap="round"/>
<path d="M85.9453 47.3411C86.4236 47.3984 86.7856 49.4802 86.9479 49.9855C87.3132 51.1234 87.7092 52.2408 88.0758 53.3827C88.9746 56.1823 89.0718 59.3209 89.8482 62.1459C90.2512 63.6126 90.6827 65.0211 91.0656 66.4889C91.5139 68.2075 91.9573 69.8595 92.7126 71.4882C93.3264 72.8118 93.7672 74.1875 94.485 75.4451C94.7078 75.8355 95.4872 77.3269 95.2906 77.221" stroke="white" stroke-width="1.93352" stroke-linecap="round"/>
<path d="M118.332 35.8753C119.941 34.1402 121.641 32.6674 123.399 31.1173C124.065 30.5291 124.669 29.8719 125.26 29.1967C125.903 28.4628 125.686 28.0104 126.711 28.2702C127.511 28.4732 128.471 28.179 129.226 28.4922C130.047 28.8325 131.694 28.9265 132.592 28.9265C133.388 28.9265 134.106 29.1002 134.892 29.1002C135.458 29.1002 136.056 29.0131 136.539 29.274" stroke="white" stroke-width="1.93352" stroke-linecap="round"/>
<path d="M137.348 29.6216C137.8 29.6216 138.699 30.1535 139.12 30.3551C140.004 30.7785 141.037 31.1851 142.011 31.1851C142.631 31.1851 143.261 31.4045 143.864 31.5229C144.39 31.6259 145.028 31.5784 145.529 31.7448C146.528 32.076 147.076 33.0532 148.072 33.4434C148.477 33.6022 148.852 33.9321 149.19 34.2155C149.713 34.6535 150.427 34.6938 150.963 35.0938C151.36 35.3901 151.893 35.4132 152.341 35.6246C153.086 35.9758 153.811 36.3529 154.588 36.609C156.049 37.0902 158.061 37.8059 158.777 39.3499" stroke="white" stroke-width="1.93352" stroke-linecap="round"/>
<path d="M136.54 29.969C135.645 32.0205 135.066 34.1061 134.365 36.2229C134.008 37.301 133.91 38.6408 133.81 39.7745C133.721 40.788 133.318 41.9167 133.318 42.9112C133.318 44.5176 132.489 46.6077 131.948 48.1228C131.145 50.3738 131.423 52.8705 131.214 55.2356C131.104 56.4865 130.783 57.7683 130.74 59.0189C130.708 59.9434 130.447 61.4452 130.06 62.281C129.617 63.236 128.847 63.9396 128.359 64.8868C127.995 65.5926 127.107 66.7405 127.034 67.4926C126.872 69.1556 125.635 70.7642 124.904 72.183C124.231 73.4876 123.426 74.8037 122.684 76.0049" stroke="white" stroke-width="1.93352" stroke-linecap="round"/>
<path d="M132.027 49.252C132.719 50.0808 133.141 51.2323 133.764 52.128C134.546 53.2527 135.079 54.693 135.662 55.9498C136.733 58.2602 137.931 60.7948 138.634 63.2557C138.99 64.5031 139.646 65.6096 139.931 66.8942C140.272 68.4223 140.941 70.0246 141.453 71.4978C141.812 72.53 142.166 73.5335 142.581 74.5186C142.796 75.0282 143.306 76.5647 143.306 76.0049" stroke="white" stroke-width="1.93352" stroke-linecap="round"/>
<path d="M134.448 21.9779C134.958 23.1471 135.256 24.4031 135.979 25.4427C136.437 26.1015 137.14 26.6175 137.671 27.1895C137.917 27.4548 138.511 28.0113 138.637 28.3187C138.858 28.8536 139.735 29.0129 140.159 29.2742C141.05 29.8231 141.901 30.1427 142.916 30.4034C143.848 30.6425 144.93 30.4902 145.888 30.4902C146.338 30.4902 146.74 30.3165 147.177 30.3165C147.659 30.3165 148.351 30.4576 148.788 30.2779C149.828 29.8509 151.205 29.7838 152.1 28.9943C152.547 28.6001 152.96 28.1762 153.389 27.7976C153.944 27.3083 154.156 26.6388 154.669 26.1472C155.256 25.5853 155.394 24.0183 155.394 23.2326C155.394 22.2341 155.556 21.1922 155.556 20.1539C155.556 19.4788 154.979 18.9502 154.911 18.3298C154.821 17.5058 154.031 16.7364 153.944 15.8977C153.784 14.3383 151.764 12.4274 150.632 11.6512C149.786 11.0705 148.576 10.8896 147.66 10.4738C146.401 9.902 145.262 9.6438 143.883 9.6438C140.802 9.6438 137.455 11.2762 135.737 14.1026C135.187 15.0076 134.572 16.1303 134.296 17.1717C134.02 18.2131 134.126 19.3333 134.126 20.4145C134.126 21.1351 134.126 21.8557 134.126 22.5763C134.126 23.7909 132.288 23.642 131.405 23.8889C130.839 24.0468 130.282 24.2277 129.722 24.4004C129.287 24.5343 130.568 24.0555 130.993 23.8889C131.12 23.8388 132.019 23.2972 132.022 23.3098C132.158 23.8237 131.543 24.4266 131.333 24.8154C130.915 25.5896 134.418 22.9974 132.676 24.9312C131.656 26.0624 134.107 24.2527 134.126 24.5837C134.156 25.1121 134.477 24.2189 134.367 23.8889C134.21 23.4126 133.642 23.0721 133.642 22.5763C133.642 21.314 134.17 20.3672 135.012 19.459C135.764 18.6478 136.276 17.7148 136.954 16.8435C137.356 16.3279 138.072 15.2028 138.798 15.2028C139.297 15.2028 139.405 15.8925 139.568 16.2452C140.053 17.2905 141.954 17.8951 142.907 18.1368C144.336 18.4992 145.869 18.851 147.338 18.851C148.422 18.851 149.503 18.8853 150.561 18.6387C151.207 18.4879 152.018 18.1943 152.655 18.1561C152.876 18.1429 153.834 17.8945 153.354 17.7218C152.639 17.465 151.616 17.7674 150.883 17.8473C150.098 17.9328 149.345 17.9824 148.556 17.9824C147.296 17.9824 146.037 17.9824 144.778 17.9824C144.137 17.9824 143.319 18.1116 142.683 17.9534C142.464 17.8989 143.774 17.3363 143.775 17.3357C144.8 16.9723 145.835 16.6447 146.855 16.2645C147.092 16.1759 148.171 15.9152 148.359 15.5503C148.429 15.4133 148.092 15.3959 147.947 15.3959C146.461 15.3959 144.959 15.5087 143.48 15.6468C142.572 15.7316 141.673 15.8811 140.768 15.9942C140.534 16.0235 139.924 16.1818 140.061 15.9749C140.165 15.8169 141.498 15.1072 141.484 15.1063C141.027 15.0774 137.769 15.9948 138.709 14.9519C139.267 14.3334 139.951 13.3511 140.786 13.2533C142.714 13.0273 144.651 12.9331 146.577 12.6839C147.203 12.603 148.99 12.2202 148.466 12.597" stroke="white" stroke-width="1.93352" stroke-linecap="round"/>
<path d="M155.066 40.5659C155.893 40.6772 155.904 43.0478 156.033 43.6735C156.257 44.7617 156.353 44.9524 157.555 44.7738C159.1 44.544 160.739 44.4824 162.254 44.1271C162.632 44.0387 165.241 44.086 164.806 43.6832C164.117 43.0467 163.669 41.9077 163.606 40.9519C163.51 39.4996 163.044 39.5723 161.887 39.7841C160.428 40.0513 159.004 40.5659 157.519 40.5659C156.863 40.5659 156.206 40.5659 155.55 40.5659" stroke="white" stroke-width="1.93352" stroke-linecap="round"/>
<path d="M148.138 46.8198C148.138 47.7246 148.096 48.8795 148.425 49.6766C148.806 50.6009 149.546 50.2521 150.484 50.1591C151.698 50.0387 152.891 50.0175 154.1 49.8117C158.443 49.0724 163.03 49.4256 167.42 49.4256C169.717 49.4256 172.015 49.4256 174.313 49.4256C175.179 49.4256 176.022 49.5284 176.882 49.609C177.562 49.6728 178.768 49.5531 179.397 49.8117C179.945 50.0367 180.57 49.972 181.134 50.1591C181.517 50.2863 182.028 50.1898 182.333 50.4293C182.531 50.5845 183.51 50.5431 183.747 50.4293C184.272 50.1782 184.392 49.9335 184.392 49.3388C184.392 48.4449 183.755 47.7685 183.577 46.9067C183.354 45.8206 181.019 46.1249 180.373 46.1249C176.515 46.1249 172.657 46.1249 168.798 46.1249C165.608 46.1249 162.433 46.2987 159.256 46.2987C155.655 46.2987 152.07 46.8198 148.461 46.8198" stroke="white" stroke-width="1.93352" stroke-linecap="round"/>
<path d="M153.781 50.8155C154.819 50.9554 154.203 65.8834 154.506 67.3864C154.954 69.6045 154.587 72.4227 154.587 74.702C154.587 75.411 154.368 76.1786 155.213 76.1786C155.991 76.1786 156.751 76.0049 157.523 76.0049C158.202 76.0049 158.132 75.8863 158.132 75.146C158.132 74.2199 157.883 73.311 157.979 72.3761C158.03 71.8879 158.132 71.4512 158.132 70.9477C158.132 69.88 157.82 68.9586 158.096 67.8787C158.409 66.6562 157.894 65.2521 158.212 64.0182C158.448 63.1026 158.293 62.015 158.293 61.065C158.293 57.5295 158.132 54.0232 158.132 50.468" stroke="white" stroke-width="1.93352" stroke-linecap="round"/>
<path d="M175.534 50.6416C176.329 50.7488 176.179 54.3053 176.179 54.9267C176.179 56.0044 176.179 57.0821 176.179 58.1599C176.179 58.9982 175.934 59.7251 175.865 60.5437C175.611 63.5564 175.695 66.5871 175.695 69.6157C175.695 70.9792 175.715 72.3446 175.695 73.7078C175.684 74.4621 175.172 75.9428 175.785 76.6032C176.292 77.15 178.436 76.6897 179.159 76.5163C180.046 76.3039 179.585 74.6334 179.562 74.0553C179.496 72.374 178.949 70.7278 178.918 69.0367C178.897 67.8892 178.918 66.7389 178.918 65.5912C178.918 63.7133 179.24 61.9018 179.24 60.0611C179.24 57.9492 179.562 55.8304 179.562 53.6914C179.562 52.559 179.562 51.4266 179.562 50.2942" stroke="white" stroke-width="1.93352" stroke-linecap="round"/>
<path d="M2.96676 13.4657C2.96676 20.8178 2.13549 28.2145 3.14579 35.5281C3.8245 40.4414 4.74683 45.6013 4.90028 50.5646C5.01328 54.2197 4.91959 58.3132 5.52688 61.9143C5.6985 62.932 5.36089 64.1481 6.11768 64.9641C6.56537 65.4468 7.22797 65.5227 7.85426 65.5625C10.5337 65.7324 13.2631 65.8385 15.9464 65.9099C18.2441 65.9711 20.3141 65.3498 22.5884 65.2536C26.5822 65.0848 30.7148 65.647 34.6908 65.1571C39.1839 64.6035 43.882 64.5394 48.4044 64.5394C50.4931 64.5394 52.5818 64.5394 54.6705 64.5394C56.284 64.5394 58.5012 64.99 60.0055 64.2692C61.0261 63.7802 62.3364 64.0016 63.3892 63.4971C64.4592 62.9844 64.5326 60.81 64.5171 59.7911C64.4732 56.9075 64.0216 53.4225 63.2281 50.6418C62.8563 49.3391 62.42 48.0309 62.136 46.7041C61.8136 45.1982 62.0581 43.6592 61.7779 42.1488C61.3291 39.7291 61.6168 37.0007 61.6168 34.5437C61.6168 31.5593 61.2945 28.6465 61.2945 25.6647C61.2945 23.2697 61.3327 20.9358 61.0439 18.5615C60.9706 17.9588 61.3343 15.3067 60.8112 14.8554C60.4086 14.5082 60.65 12.9574 60.65 12.4233C60.65 10.2791 59.8921 10.802 58.0541 11.2073C46.1796 13.826 34.2019 14.1606 22.1408 14.1606C19.6958 14.1606 17.3212 13.4657 14.8901 13.4657C13.7555 13.4657 12.1501 13.3188 11.0231 13.041C8.23518 12.354 4.85166 12.7708 2 12.7708" stroke="white" stroke-width="1.93352" stroke-linecap="round"/>
<path d="M11.0234 21.4568C11.0234 26.8101 11.5394 32.2458 11.6858 37.6128C11.7869 41.3164 12.2055 45.0132 12.7063 48.673C13.3964 53.7158 13.7832 55.9115 19.2409 55.4674C22.2987 55.2185 25.5171 54.565 28.5325 53.9425C30.2007 53.5981 31.8745 52.7724 33.5811 52.7264C36.7388 52.6413 39.8771 52.379 43.0339 52.379C44.9922 52.379 46.8334 52.0316 48.7986 52.0316C49.9648 52.0316 51.9269 52.3953 52.9163 51.6841" stroke="white" stroke-width="1.93352" stroke-linecap="round"/>
<path d="M18.4336 53.4214C18.9675 53.4933 19.6663 55.9362 20.0449 56.5484" stroke="white" stroke-width="1.93352" stroke-linecap="round"/>
<path d="M23.9102 52.0315C24.2574 52.1251 25.0685 54.041 25.1992 54.4636" stroke="white" stroke-width="1.93352" stroke-linecap="round"/>
<path d="M36.8047 50.2944C36.8047 51.1366 37.3505 52.3932 37.7714 53.074" stroke="white" stroke-width="1.93352" stroke-linecap="round"/>
<path d="M46.793 49.947C47.2163 50.8599 47.7882 51.7762 48.082 52.7265" stroke="white" stroke-width="1.93352" stroke-linecap="round"/>
<path d="M8.12109 29.4478C9.917 29.4478 11.5481 29.219 13.2771 28.7529" stroke="white" stroke-width="1.93352" stroke-linecap="round"/>
<path d="M9.41406 33.2698C10.4076 33.2698 11.1457 33.1225 11.9921 32.575" stroke="white" stroke-width="1.93352" stroke-linecap="round"/>
<path d="M18.1133 45.4302C18.2851 43.7626 19.4934 41.5326 20.2616 40.1414C20.8746 39.0315 23.8832 33.347 25.3461 33.347C26.2066 33.347 28.4208 43.5435 29.786 42.0716C31.18 40.5687 32.0686 38.0284 32.8653 36.1265C33.5682 34.4484 33.6971 33.1192 34.405 35.5475C34.9784 37.5147 36.0601 39.2559 36.7681 41.1644C37.19 42.3015 37.985 39.4085 38.093 39.0991C39.1135 36.1755 40.0577 33.2825 40.671 30.22C41.1738 27.7093 41.1424 25.4222 42.7656 23.3677C43.8193 22.0341 44.8622 20.6806 46.579 20.4338C48.0339 20.2246 47.9883 24.0534 48.0112 24.6996C48.2685 31.9474 46.5897 39.261 48.2439 46.3953C48.8321 48.9319 49.509 47.914 50.3386 46.1251" stroke="white" stroke-width="1.93352" stroke-linecap="round"/>
</g>
<defs>
<clipPath id="clip0_419_140">
<rect width="186" height="78" fill="white"/>
</clipPath>
</defs>
</svg>
